<svg id="图层_1" data-name="图层 1" xmlns="http://www.w3.org/2000/svg" xmlns:xlink="http://www.w3.org/1999/xlink" viewBox="0 0 90 90"><defs><style>.cls-1{fill:url(#未命名的渐变_31);}.cls-2{fill:#fff;}</style><linearGradient id="未命名的渐变_31" x1="6.11" y1="22.53" x2="83.89" y2="67.43" gradientUnits="userSpaceOnUse"><stop offset="0" stop-color="#86d0d1"/><stop offset="1" stop-color="#009c9e"/></linearGradient></defs><path class="cls-1" d="M80.87,19.49,49.13,1.07a8.49,8.49,0,0,0-8.26,0L9.13,19.49A8.34,8.34,0,0,0,5,26.64V63.32a8.15,8.15,0,0,0,4.13,7.15L40.87,88.89a8.24,8.24,0,0,0,8.26,0L80.87,70.47A8.34,8.34,0,0,0,85,63.32V26.64A8.15,8.15,0,0,0,80.87,19.49Z"/><path class="cls-2" d="M27.22,49.19l2.54-7.31,2.54,7.31ZM35,57.29h6L32.78,35.53H26.59L18.33,57.29h6l1.26-3.81h8.1ZM49.13,40H51c2.07,0,3.18,1,3.18,2.7s-1.11,2.7-3.18,2.7h-1.9Zm0,10h3.33A7.62,7.62,0,0,0,58,48.08a7.22,7.22,0,0,0,1.9-5.4,7.22,7.22,0,0,0-1.9-5.4,7.62,7.62,0,0,0-5.56-1.91H43.41V57.13h5.72Zm14-14.45V57.29h5.71V35.53Z"/></svg>