<?xml version="1.0" encoding="UTF-8" standalone="no"?><svg xmlns="http://www.w3.org/2000/svg" xmlns:xlink="http://www.w3.org/1999/xlink" contentScriptType="application/ecmascript" contentStyleType="text/css" height="753px" preserveAspectRatio="none" style="width:332px;height:753px;background:#FFFFFF;" version="1.1" viewBox="0 0 332 753" width="332px" zoomAndPan="magnify"><defs><filter height="300%" id="f1hjg1vhknx9vm" width="300%" x="-1" y="-1"><feGaussianBlur result="blurOut" stdDeviation="2.0"/><feColorMatrix in="blurOut" result="blurOut2" type="matrix" values="0 0 0 0 0 0 0 0 0 0 0 0 0 0 0 0 0 0 .4 0"/><feOffset dx="4.0" dy="4.0" in="blurOut2" result="blurOut3"/><feBlend in="SourceGraphic" in2="blurOut3" mode="normal"/></filter></defs><g><text fill="#000000" font-family="sans-serif" font-size="18" lengthAdjust="spacing" textLength="229" x="45" y="16.708">Bookshelf Class Diagram</text><!--MD5=[023ecf6702e3ca2ce47ae747eafb20f1]
class Iterator--><rect codeLine="3" fill="#FEFECE" filter="url(#f1hjg1vhknx9vm)" height="73.6094" id="Iterator" style="stroke:#A80036;stroke-width:1.5;" width="131" x="97.5" y="148.9531"/><ellipse cx="136.8" cy="164.9531" fill="#B4A7E5" rx="11" ry="11" style="stroke:#A80036;stroke-width:1.0;"/><path d="M137.7531,161.7344 L139.4719,161.7344 C139.8625,161.7344 140.05,161.7031 140.175,161.625 C140.4406,161.4688 140.5813,161.1875 140.5813,160.8906 C140.5813,160.625 140.4719,160.3594 140.2375,160.1875 C140.0656,160.0781 139.925,160.0469 139.4719,160.0469 L134.3313,160.0469 C133.8938,160.0469 133.7688,160.0625 133.6125,160.1563 C133.3625,160.3125 133.2063,160.6094 133.2063,160.8906 C133.2063,161.1719 133.3469,161.4219 133.5656,161.5938 C133.7219,161.7031 133.9094,161.7344 134.3313,161.7344 L136.05,161.7344 L136.05,168.25 L134.3313,168.25 C133.8938,168.25 133.7688,168.2656 133.6125,168.375 C133.3625,168.5313 133.2063,168.8125 133.2063,169.1094 C133.2063,169.3594 133.3469,169.625 133.5656,169.7813 C133.7219,169.9063 133.925,169.9531 134.3313,169.9531 L139.4719,169.9531 C140.2219,169.9531 140.5813,169.6719 140.5813,169.1094 C140.5813,168.8281 140.4719,168.5781 140.2375,168.4063 C140.0656,168.2813 139.925,168.25 139.4719,168.25 L137.7531,168.25 L137.7531,161.7344 Z " fill="#000000"/><text fill="#000000" font-family="sans-serif" font-size="12" font-style="italic" lengthAdjust="spacing" textLength="45" x="156.2" y="169.1074">Iterator</text><line style="stroke:#A80036;stroke-width:1.5;" x1="98.5" x2="227.5" y1="180.9531" y2="180.9531"/><line style="stroke:#A80036;stroke-width:1.5;" x1="98.5" x2="227.5" y1="188.9531" y2="188.9531"/><ellipse cx="108.5" cy="199.9531" fill="#84BE84" rx="3" ry="3" style="stroke:#038048;stroke-width:1.0;"/><text fill="#000000" font-family="sans-serif" font-size="11" lengthAdjust="spacing" textLength="105" x="117.5" y="203.1636">boolean hasNext()</text><ellipse cx="108.5" cy="212.7578" fill="#84BE84" rx="3" ry="3" style="stroke:#038048;stroke-width:1.0;"/><text fill="#000000" font-family="sans-serif" font-size="11" lengthAdjust="spacing" textLength="75" x="117.5" y="215.9683">Object next()</text><!--MD5=[914cdf822bf80e984e8ac3bf93b406a5]
class Aggregate--><rect codeLine="9" fill="#FEFECE" filter="url(#f1hjg1vhknx9vm)" height="60.8047" id="Aggregate" style="stroke:#A80036;stroke-width:1.5;" width="120" x="192" y="27.9531"/><ellipse cx="218.25" cy="43.9531" fill="#B4A7E5" rx="11" ry="11" style="stroke:#A80036;stroke-width:1.0;"/><path d="M219.2031,40.7344 L220.9219,40.7344 C221.3125,40.7344 221.5,40.7031 221.625,40.625 C221.8906,40.4688 222.0313,40.1875 222.0313,39.8906 C222.0313,39.625 221.9219,39.3594 221.6875,39.1875 C221.5156,39.0781 221.375,39.0469 220.9219,39.0469 L215.7813,39.0469 C215.3438,39.0469 215.2188,39.0625 215.0625,39.1563 C214.8125,39.3125 214.6563,39.6094 214.6563,39.8906 C214.6563,40.1719 214.7969,40.4219 215.0156,40.5938 C215.1719,40.7031 215.3594,40.7344 215.7813,40.7344 L217.5,40.7344 L217.5,47.25 L215.7813,47.25 C215.3438,47.25 215.2188,47.2656 215.0625,47.375 C214.8125,47.5313 214.6563,47.8125 214.6563,48.1094 C214.6563,48.3594 214.7969,48.625 215.0156,48.7813 C215.1719,48.9063 215.375,48.9531 215.7813,48.9531 L220.9219,48.9531 C221.6719,48.9531 222.0313,48.6719 222.0313,48.1094 C222.0313,47.8281 221.9219,47.5781 221.6875,47.4063 C221.5156,47.2813 221.375,47.25 220.9219,47.25 L219.2031,47.25 L219.2031,40.7344 Z " fill="#000000"/><text fill="#000000" font-family="sans-serif" font-size="12" font-style="italic" lengthAdjust="spacing" textLength="63" x="234.75" y="48.1074">Aggregate</text><line style="stroke:#A80036;stroke-width:1.5;" x1="193" x2="311" y1="59.9531" y2="59.9531"/><line style="stroke:#A80036;stroke-width:1.5;" x1="193" x2="311" y1="67.9531" y2="67.9531"/><ellipse cx="203" cy="78.9531" fill="#84BE84" rx="3" ry="3" style="stroke:#038048;stroke-width:1.0;"/><text fill="#000000" font-family="sans-serif" font-size="11" lengthAdjust="spacing" textLength="94" x="212" y="82.1636">Iterator iterator()</text><!--MD5=[84e3a5e42879fb3231104d3c8e592439]
class Book--><rect codeLine="14" fill="#FEFECE" filter="url(#f1hjg1vhknx9vm)" height="86.4141" id="Book" style="stroke:#A80036;stroke-width:1.5;" width="132" x="156" y="652.9531"/><ellipse cx="202.25" cy="668.9531" fill="#ADD1B2" rx="11" ry="11" style="stroke:#A80036;stroke-width:1.0;"/><path d="M204.5938,664.625 C203.6563,664.1875 203.0625,664.0469 202.1875,664.0469 C199.5625,664.0469 197.5625,666.125 197.5625,668.8438 L197.5625,669.9688 C197.5625,672.5469 199.6719,674.4375 202.5625,674.4375 C203.7813,674.4375 204.9375,674.1406 205.6875,673.5938 C206.2656,673.1875 206.5938,672.7344 206.5938,672.3438 C206.5938,671.8906 206.2031,671.5 205.7344,671.5 C205.5156,671.5 205.3125,671.5781 205.125,671.7656 C204.6719,672.25 204.6719,672.25 204.4844,672.3438 C204.0625,672.6094 203.375,672.7344 202.6094,672.7344 C200.5625,672.7344 199.2656,671.6406 199.2656,669.9375 L199.2656,668.8438 C199.2656,667.0625 200.5156,665.75 202.25,665.75 C202.8281,665.75 203.4375,665.9063 203.9063,666.1563 C204.3906,666.4375 204.5625,666.6563 204.6563,667.0625 C204.7188,667.4688 204.75,667.5938 204.8906,667.7188 C205.0313,667.8594 205.2656,667.9688 205.4844,667.9688 C205.75,667.9688 206.0156,667.8281 206.1875,667.6094 C206.2969,667.4531 206.3281,667.2656 206.3281,666.8438 L206.3281,665.4219 C206.3281,664.9844 206.3125,664.8594 206.2188,664.7031 C206.0625,664.4375 205.7813,664.2969 205.4844,664.2969 C205.1875,664.2969 204.9844,664.3906 204.7656,664.7031 L204.5938,664.625 Z " fill="#000000"/><text fill="#000000" font-family="sans-serif" font-size="12" lengthAdjust="spacing" textLength="31" x="222.75" y="673.1074">Book</text><line style="stroke:#A80036;stroke-width:1.5;" x1="157" x2="287" y1="684.9531" y2="684.9531"/><rect fill="none" height="6" style="stroke:#C82930;stroke-width:1.0;" width="6" x="164" y="692.9531"/><text fill="#000000" font-family="sans-serif" font-size="11" lengthAdjust="spacing" textLength="70" x="176" y="699.1636">String name</text><line style="stroke:#A80036;stroke-width:1.5;" x1="157" x2="287" y1="705.7578" y2="705.7578"/><ellipse cx="167" cy="716.7578" fill="#84BE84" rx="3" ry="3" style="stroke:#038048;stroke-width:1.0;"/><text fill="#000000" font-family="sans-serif" font-size="11" lengthAdjust="spacing" textLength="106" x="176" y="719.9683">Book(String name)</text><ellipse cx="167" cy="729.5625" fill="#84BE84" rx="3" ry="3" style="stroke:#038048;stroke-width:1.0;"/><text fill="#000000" font-family="sans-serif" font-size="11" lengthAdjust="spacing" textLength="98" x="176" y="732.7729">String getName()</text><!--MD5=[a3f4307320df94d9e0110f35f6a6db82]
class BookShelf--><rect codeLine="21" fill="#FEFECE" filter="url(#f1hjg1vhknx9vm)" height="137.6328" id="BookShelf" style="stroke:#A80036;stroke-width:1.5;" width="192" x="126" y="454.9531"/><ellipse cx="187.25" cy="470.9531" fill="#ADD1B2" rx="11" ry="11" style="stroke:#A80036;stroke-width:1.0;"/><path d="M189.5938,466.625 C188.6563,466.1875 188.0625,466.0469 187.1875,466.0469 C184.5625,466.0469 182.5625,468.125 182.5625,470.8438 L182.5625,471.9688 C182.5625,474.5469 184.6719,476.4375 187.5625,476.4375 C188.7813,476.4375 189.9375,476.1406 190.6875,475.5938 C191.2656,475.1875 191.5938,474.7344 191.5938,474.3438 C191.5938,473.8906 191.2031,473.5 190.7344,473.5 C190.5156,473.5 190.3125,473.5781 190.125,473.7656 C189.6719,474.25 189.6719,474.25 189.4844,474.3438 C189.0625,474.6094 188.375,474.7344 187.6094,474.7344 C185.5625,474.7344 184.2656,473.6406 184.2656,471.9375 L184.2656,470.8438 C184.2656,469.0625 185.5156,467.75 187.25,467.75 C187.8281,467.75 188.4375,467.9063 188.9063,468.1563 C189.3906,468.4375 189.5625,468.6563 189.6563,469.0625 C189.7188,469.4688 189.75,469.5938 189.8906,469.7188 C190.0313,469.8594 190.2656,469.9688 190.4844,469.9688 C190.75,469.9688 191.0156,469.8281 191.1875,469.6094 C191.2969,469.4531 191.3281,469.2656 191.3281,468.8438 L191.3281,467.4219 C191.3281,466.9844 191.3125,466.8594 191.2188,466.7031 C191.0625,466.4375 190.7813,466.2969 190.4844,466.2969 C190.1875,466.2969 189.9844,466.3906 189.7656,466.7031 L189.5938,466.625 Z " fill="#000000"/><text fill="#000000" font-family="sans-serif" font-size="12" lengthAdjust="spacing" textLength="61" x="207.75" y="475.1074">BookShelf</text><line style="stroke:#A80036;stroke-width:1.5;" x1="127" x2="317" y1="486.9531" y2="486.9531"/><rect fill="none" height="6" style="stroke:#C82930;stroke-width:1.0;" width="6" x="134" y="494.9531"/><text fill="#000000" font-family="sans-serif" font-size="11" lengthAdjust="spacing" textLength="73" x="146" y="501.1636">Book[] books</text><rect fill="none" height="6" style="stroke:#C82930;stroke-width:1.0;" width="6" x="134" y="507.7578"/><text fill="#000000" font-family="sans-serif" font-size="11" lengthAdjust="spacing" textLength="38" x="146" y="513.9683">int last</text><line style="stroke:#A80036;stroke-width:1.5;" x1="127" x2="317" y1="520.5625" y2="520.5625"/><ellipse cx="137" cy="531.5625" fill="#84BE84" rx="3" ry="3" style="stroke:#038048;stroke-width:1.0;"/><text fill="#000000" font-family="sans-serif" font-size="11" lengthAdjust="spacing" textLength="133" x="146" y="534.7729">BookShelf(int maxsize)</text><ellipse cx="137" cy="544.3672" fill="#84BE84" rx="3" ry="3" style="stroke:#038048;stroke-width:1.0;"/><text fill="#000000" font-family="sans-serif" font-size="11" lengthAdjust="spacing" textLength="94" x="146" y="547.5776">Iterator iterator()</text><ellipse cx="137" cy="557.1719" fill="#84BE84" rx="3" ry="3" style="stroke:#038048;stroke-width:1.0;"/><text fill="#000000" font-family="sans-serif" font-size="11" lengthAdjust="spacing" textLength="149" x="146" y="560.3823">Book getBookAt(int index)</text><ellipse cx="137" cy="569.9766" fill="#84BE84" rx="3" ry="3" style="stroke:#038048;stroke-width:1.0;"/><text fill="#000000" font-family="sans-serif" font-size="11" lengthAdjust="spacing" textLength="166" x="146" y="573.187">void appendBook(Book book)</text><ellipse cx="137" cy="582.7813" fill="#84BE84" rx="3" ry="3" style="stroke:#038048;stroke-width:1.0;"/><text fill="#000000" font-family="sans-serif" font-size="11" lengthAdjust="spacing" textLength="84" x="146" y="585.9917">int getLength()</text><!--MD5=[3c77abededc2d63828a252f1b3fc8343]
class BookShelfIterator--><rect codeLine="32" fill="#FEFECE" filter="url(#f1hjg1vhknx9vm)" height="112.0234" id="BookShelfIterator" style="stroke:#A80036;stroke-width:1.5;" width="252" x="7" y="282.9531"/><ellipse cx="76.25" cy="298.9531" fill="#ADD1B2" rx="11" ry="11" style="stroke:#A80036;stroke-width:1.0;"/><path d="M78.5938,294.625 C77.6563,294.1875 77.0625,294.0469 76.1875,294.0469 C73.5625,294.0469 71.5625,296.125 71.5625,298.8438 L71.5625,299.9688 C71.5625,302.5469 73.6719,304.4375 76.5625,304.4375 C77.7813,304.4375 78.9375,304.1406 79.6875,303.5938 C80.2656,303.1875 80.5938,302.7344 80.5938,302.3438 C80.5938,301.8906 80.2031,301.5 79.7344,301.5 C79.5156,301.5 79.3125,301.5781 79.125,301.7656 C78.6719,302.25 78.6719,302.25 78.4844,302.3438 C78.0625,302.6094 77.375,302.7344 76.6094,302.7344 C74.5625,302.7344 73.2656,301.6406 73.2656,299.9375 L73.2656,298.8438 C73.2656,297.0625 74.5156,295.75 76.25,295.75 C76.8281,295.75 77.4375,295.9063 77.9063,296.1563 C78.3906,296.4375 78.5625,296.6563 78.6563,297.0625 C78.7188,297.4688 78.75,297.5938 78.8906,297.7188 C79.0313,297.8594 79.2656,297.9688 79.4844,297.9688 C79.75,297.9688 80.0156,297.8281 80.1875,297.6094 C80.2969,297.4531 80.3281,297.2656 80.3281,296.8438 L80.3281,295.4219 C80.3281,294.9844 80.3125,294.8594 80.2188,294.7031 C80.0625,294.4375 79.7813,294.2969 79.4844,294.2969 C79.1875,294.2969 78.9844,294.3906 78.7656,294.7031 L78.5938,294.625 Z " fill="#000000"/><text fill="#000000" font-family="sans-serif" font-size="12" lengthAdjust="spacing" textLength="105" x="96.75" y="303.1074">BookShelfIterator</text><line style="stroke:#A80036;stroke-width:1.5;" x1="8" x2="258" y1="314.9531" y2="314.9531"/><rect fill="none" height="6" style="stroke:#C82930;stroke-width:1.0;" width="6" x="15" y="322.9531"/><text fill="#000000" font-family="sans-serif" font-size="11" lengthAdjust="spacing" textLength="119" x="27" y="329.1636">BookShelf bookShelf</text><rect fill="none" height="6" style="stroke:#C82930;stroke-width:1.0;" width="6" x="15" y="335.7578"/><text fill="#000000" font-family="sans-serif" font-size="11" lengthAdjust="spacing" textLength="50" x="27" y="341.9683">int index</text><line style="stroke:#A80036;stroke-width:1.5;" x1="8" x2="258" y1="348.5625" y2="348.5625"/><ellipse cx="18" cy="359.5625" fill="#84BE84" rx="3" ry="3" style="stroke:#038048;stroke-width:1.0;"/><text fill="#000000" font-family="sans-serif" font-size="11" lengthAdjust="spacing" textLength="226" x="27" y="362.7729">BookShelfIterator(BookShelf bookShelf)</text><ellipse cx="18" cy="372.3672" fill="#84BE84" rx="3" ry="3" style="stroke:#038048;stroke-width:1.0;"/><text fill="#000000" font-family="sans-serif" font-size="11" lengthAdjust="spacing" textLength="105" x="27" y="375.5776">boolean hasNext()</text><ellipse cx="18" cy="385.1719" fill="#84BE84" rx="3" ry="3" style="stroke:#038048;stroke-width:1.0;"/><text fill="#000000" font-family="sans-serif" font-size="11" lengthAdjust="spacing" textLength="75" x="27" y="388.3823">Object next()</text><!--MD5=[0de2996ddd33ea713f24d1b17ea12283]
link Aggregate to Iterator--><path codeLine="41" d="M230.908,89.1951 C219.251,105.6331 204.598,126.2961 191.889,144.2161 " fill="none" id="Aggregate-to-Iterator" style="stroke:#A80036;stroke-width:1.0;"/><polygon fill="#A80036" points="188.703,148.7081,197.1713,143.6793,191.5947,144.6292,190.6449,139.0526,188.703,148.7081" style="stroke:#A80036;stroke-width:1.0;"/><!--MD5=[78a51286da8f08a3a9d92eff08176225]
reverse link Aggregate to BookShelf--><path codeLine="42" d="M263.744,108.7371 C277.581,174.6171 296.278,294.7181 276,394.9531 C271.935,415.0471 264.616,435.9091 256.652,454.8131 " fill="none" id="Aggregate-backto-BookShelf" style="stroke:#A80036;stroke-width:1.0;"/><polygon fill="none" points="256.854,110.0011,259.389,88.9631,270.527,106.9901,256.854,110.0011" style="stroke:#A80036;stroke-width:1.0;"/><!--MD5=[f8e793200382e98f2fe73ab7e9e49593]
reverse link Iterator to BookShelfIterator--><path codeLine="43" d="M151.911,242.7661 C149.308,255.8711 146.535,269.8271 143.938,282.8991 " fill="none" id="Iterator-backto-BookShelfIterator" style="stroke:#A80036;stroke-width:1.0;"/><polygon fill="none" points="145.051,241.3741,155.814,223.1211,158.783,244.1021,145.051,241.3741" style="stroke:#A80036;stroke-width:1.0;"/><!--MD5=[837a9dd8999056435d4948ae95136e01]
reverse link BookShelf to Book--><path codeLine="44" d="M222,606.4731 C222,622.4761 222,638.6431 222,652.702 " fill="none" id="BookShelf-backto-Book" style="stroke:#A80036;stroke-width:1.0;"/><polygon fill="#FFFFFF" points="222,593.1191,218,599.1191,222,605.1191,226,599.1191,222,593.1191" style="stroke:#A80036;stroke-width:1.0;"/><!--MD5=[d9005e97d2b880cfb01d9696f84e13f4]
reverse link BookShelfIterator to BookShelf--><path codeLine="45" d="M165.845,407.4891 C173.353,422.9261 181.337,439.3421 188.857,454.8041 " fill="none" id="BookShelfIterator-backto-BookShelf" style="stroke:#A80036;stroke-width:1.0;"/><polygon fill="#FFFFFF" points="159.944,395.3561,158.9709,402.5013,165.1921,406.1477,166.1652,399.0025,159.944,395.3561" style="stroke:#A80036;stroke-width:1.0;"/><!--MD5=[e5dd26361b7d216286d8b6a1f88e5b5b]
@startuml
Title "Bookshelf Class Diagram"

interface Iterator
{
+ boolean hasNext()
+ Object next()
}

interface Aggregate
{
+ Iterator iterator()
}

class Book
{
- String name
+ Book(String name)
+ String getName()
}

class BookShelf
{
- Book[] books
- int last
+ BookShelf(int maxsize)
+ Iterator iterator()
+ Book getBookAt(int index)
+ void appendBook(Book book)
+ int getLength()
}

class BookShelfIterator
{
- BookShelf bookShelf
- int index
+ BookShelfIterator(BookShelf bookShelf)
+ boolean hasNext()
+ Object next()
}

Aggregate - -> Iterator
Aggregate <|- - BookShelf
Iterator <|- - BookShelfIterator
BookShelf o- - Book
BookShelfIterator o- - BookShelf
@enduml

PlantUML version 1.2021.11beta1(Unknown compile time)
(GPL source distribution)
Java Runtime: Java(TM) SE Runtime Environment
JVM: Java HotSpot(TM) 64-Bit Server VM
Default Encoding: UTF-8
Language: en
Country: US
--></g></svg>