<?xml version="1.0" standalone="no"?><!DOCTYPE svg PUBLIC "-//W3C//DTD SVG 1.1//EN" "http://www.w3.org/Graphics/SVG/1.1/DTD/svg11.dtd"><svg t="1637853476548" class="icon" viewBox="0 0 1024 1024" version="1.1" xmlns="http://www.w3.org/2000/svg" p-id="3557" xmlns:xlink="http://www.w3.org/1999/xlink" width="200" height="200"><defs><style type="text/css"></style></defs><path d="M512 512m-507.12381 0a507.12381 507.12381 0 1 0 1014.24762 0 507.12381 507.12381 0 1 0-1014.24762 0Z" fill="#FFBD66" p-id="3558"></path><path d="M512 1024A512 512 0 1 1 1024 512 512.78019 512.78019 0 0 1 512 1024z m0-1014.247619A502.247619 502.247619 0 1 0 1014.247619 512 502.832762 502.832762 0 0 0 512 9.752381z" fill="#351D14" p-id="3559"></path><path d="M743.521524 466.944m-130.096762 0a130.096762 130.096762 0 1 0 260.193524 0 130.096762 130.096762 0 1 0-260.193524 0Z" fill="#FFFFFF" p-id="3560"></path><path d="M743.521524 602.112A135.168 135.168 0 1 1 877.714286 466.944a135.363048 135.363048 0 0 1-134.192762 135.168z m0-260.388571a125.415619 125.415619 0 1 0 125.220571 125.220571 125.610667 125.610667 0 0 0-125.220571-125.220571z" fill="#351D14" p-id="3561"></path><path d="M743.521524 466.944m-92.842667 0a92.842667 92.842667 0 1 0 185.685333 0 92.842667 92.842667 0 1 0-185.685333 0Z" fill="#351D14" p-id="3562"></path><path d="M740.010667 466.944m-36.08381 0a36.08381 36.08381 0 1 0 72.167619 0 36.08381 36.08381 0 1 0-72.167619 0Z" fill="#FFFFFF" p-id="3563"></path><path d="M794.233905 479.622095m-11.897905 0a11.897905 11.897905 0 1 0 23.79581 0 11.897905 11.897905 0 1 0-23.79581 0Z" fill="#FFFFFF" p-id="3564"></path><path d="M799.695238 546.133333a56.173714 56.173714 0 0 1-39.009524 13.653334 120.149333 120.149333 0 0 0-24.966095 2.730666 18.139429 18.139429 0 0 0-13.848381 15.408762c0 6.631619 0 16.188952 17.164191 17.944381a117.028571 117.028571 0 0 1 24.966095 0.975238 17.16419 17.16419 0 0 1 11.312762 12.288 34.133333 34.133333 0 0 1 0 17.164191 34.133333 34.133333 0 0 0-0.975238 22.820571 12.678095 12.678095 0 0 0 13.06819 6.046476 14.823619 14.823619 0 0 0 13.848381-15.798857A53.638095 53.638095 0 0 0 799.695238 624.152381a56.173714 56.173714 0 0 1-1.755428-17.944381 25.746286 25.746286 0 0 1 4.87619-13.458286 36.08381 36.08381 0 0 1 10.922667-8.582095 62.025143 62.025143 0 0 0 22.820571-23.210667c5.071238-9.752381 11.117714-25.161143 1.950476-33.743238a15.60381 15.60381 0 0 0-21.650285 0A205.385143 205.385143 0 0 1 799.695238 546.133333z" fill="#8CDBF4" p-id="3565"></path><path d="M295.302095 469.089524m-130.096762 0a130.096762 130.096762 0 1 0 260.193524 0 130.096762 130.096762 0 1 0-260.193524 0Z" fill="#FFFFFF" p-id="3566"></path><path d="M295.302095 604.647619a135.168 135.168 0 1 1 134.972953-134.972952A135.168 135.168 0 0 1 295.302095 604.647619z m0-260.388571a125.415619 125.415619 0 1 0 125.220572 125.415619 125.610667 125.610667 0 0 0-125.220572-126.000762z" fill="#351D14" p-id="3567"></path><path d="M295.302095 469.089524m-92.842666 0a92.842667 92.842667 0 1 0 185.685333 0 92.842667 92.842667 0 1 0-185.685333 0Z" fill="#351D14" p-id="3568"></path><path d="M298.617905 468.894476m-36.08381 0a36.08381 36.08381 0 1 0 72.167619 0 36.08381 36.08381 0 1 0-72.167619 0Z" fill="#FFFFFF" p-id="3569"></path><path d="M244.394667 481.572571m-11.897905 0a11.897905 11.897905 0 1 0 23.795809 0 11.897905 11.897905 0 1 0-23.795809 0Z" fill="#FFFFFF" p-id="3570"></path><path d="M239.713524 548.473905a55.588571 55.588571 0 0 0 39.009524 13.848381 120.149333 120.149333 0 0 1 24.966095 2.535619 19.504762 19.504762 0 0 1 13.848381 15.603809c0 6.436571 0 16.188952-17.359238 17.749334a131.85219 131.85219 0 0 0-24.966096 0 19.504762 19.504762 0 0 0-11.312761 12.288 34.913524 34.913524 0 0 0 0 17.359238 35.498667 35.498667 0 0 1 0 22.820571 12.678095 12.678095 0 0 1-13.068191 5.851429 14.823619 14.823619 0 0 1-14.043428-15.60381 49.152 49.152 0 0 1 2.925714-15.798857 67.681524 67.681524 0 0 0 1.755428-17.749333 26.331429 26.331429 0 0 0-4.87619-13.653334 35.498667 35.498667 0 0 0-10.922667-8.387047 62.610286 62.610286 0 0 1-23.015619-23.210667c-5.071238-9.752381-10.922667-25.161143-1.950476-33.743238a15.408762 15.408762 0 0 1 21.650286 0 153.112381 153.112381 0 0 0 17.359238 20.089905z" fill="#8CDBF4" p-id="3571"></path><path d="M652.824381 756.589714A45.251048 45.251048 0 0 1 618.300952 741.180952a35.303619 35.303619 0 0 0-55.783619 0 44.860952 44.860952 0 0 1-69.241904 0 35.108571 35.108571 0 0 0-55.588572 0 44.860952 44.860952 0 0 1-69.241905 0 36.278857 36.278857 0 0 0-27.696762-13.653333 4.87619 4.87619 0 0 1-4.87619-4.87619 4.87619 4.87619 0 0 1 4.87619-4.876191 46.031238 46.031238 0 0 1 34.523429 16.384 35.108571 35.108571 0 0 0 55.588571 0 44.860952 44.860952 0 0 1 69.241905 0 35.108571 35.108571 0 0 0 55.588572 0 44.860952 44.860952 0 0 1 69.241904 0 35.303619 35.303619 0 0 0 55.783619 0 46.421333 46.421333 0 0 1 34.718477-16.384 4.87619 4.87619 0 0 1 4.87619 4.876191 4.87619 4.87619 0 0 1-4.87619 4.87619 36.864 36.864 0 0 0-27.89181 13.653333 45.446095 45.446095 0 0 1-34.718476 15.408762zM746.447238 253.561905a64.950857 64.950857 0 0 1 18.529524 10.532571 111.37219 111.37219 0 0 0 15.213714 13.068191 69.632 69.632 0 0 0 17.359238 7.801904 51.492571 51.492571 0 0 0 18.334476 1.755429 73.728 73.728 0 0 1 23.210667 2.535619 56.758857 56.758857 0 0 1 20.675048 11.312762 65.926095 65.926095 0 0 1 13.263238 17.554286 107.471238 107.471238 0 0 0 12.483047 15.798857v1.365333a42.325333 42.325333 0 0 1-21.455238-7.801905c-6.436571-4.681143-10.727619-9.362286-15.408762-11.897904a147.260952 147.260952 0 0 0-15.603809-8.582096 42.130286 42.130286 0 0 0-16.969143-5.071238 65.340952 65.340952 0 0 1-22.235428-5.461333 78.019048 78.019048 0 0 1-19.504762-12.092952 100.449524 100.449524 0 0 1-13.458286-16.579048 61.244952 61.244952 0 0 0-15.213714-12.873143V253.561905h0.78019zM305.444571 264.874667a58.514286 58.514286 0 0 1-19.504761 7.996952 121.904762 121.904762 0 0 0-19.504762 4.096 70.022095 70.022095 0 0 0-16.969143 8.777143 48.566857 48.566857 0 0 0-12.678095 13.263238 69.436952 69.436952 0 0 1-16.384 16.579048 56.758857 56.758857 0 0 1-21.650286 9.362285 67.291429 67.291429 0 0 1-22.040381 0 117.028571 117.028571 0 0 0-19.504762 0 1.170286 1.170286 0 0 1-1.170286-1.365333 42.325333 42.325333 0 0 1 19.504762-12.092952 191.146667 191.146667 0 0 0 19.504762-4.681143c5.071238-1.950476 10.922667-4.291048 16.384-6.826667a44.860952 44.860952 0 0 0 14.433524-10.532571 67.876571 67.876571 0 0 1 18.139428-13.848381 78.019048 78.019048 0 0 1 21.065143-7.41181 111.37219 111.37219 0 0 1 21.260191 0 53.052952 53.052952 0 0 0 19.504762-4.096 1.170286 1.170286 0 0 1 1.365333 0l-1.755429 0.780191z" fill="#351D14" p-id="3572"></path></svg>