<?xml version="1.0" standalone="no"?><!DOCTYPE svg PUBLIC "-//W3C//DTD SVG 1.1//EN" "http://www.w3.org/Graphics/SVG/1.1/DTD/svg11.dtd"><svg t="1631612924675" class="icon" viewBox="0 0 1024 1024" version="1.1" xmlns="http://www.w3.org/2000/svg" p-id="6661" xmlns:xlink="http://www.w3.org/1999/xlink" width="200" height="200"><defs><style type="text/css"></style></defs><path d="M638.25 430.62m-325.26 0a325.26 325.26 0 1 0 650.52 0 325.26 325.26 0 1 0-650.52 0Z" fill="#FFE4CC" p-id="6662"></path><path d="M491.02 84.32L74.14 389.14l416.88 304.83L907.9 389.14z" fill="#FFFFFF" p-id="6663"></path><path d="M74.14 389.14v240.89l416.88 309.65V693.97z" fill="#FFFFFF" p-id="6664"></path><path d="M907.9 389.14v239.91L491.02 939.68V693.97z" fill="#F88E20" p-id="6665"></path><path d="M491.03 876.26c-3.83 0-7.62-1.74-10.1-5.04-4.19-5.57-3.07-13.49 2.5-17.68l69.24-52.09c5.57-4.19 13.49-3.07 17.68 2.5 4.19 5.57 3.07 13.49-2.5 17.68l-69.25 52.09a12.523 12.523 0 0 1-7.57 2.54z" fill="#441B00" p-id="6666"></path><path d="M920.45 387.79c-0.01-0.07-0.01-0.15-0.02-0.22-0.05-0.43-0.13-0.85-0.23-1.27l-0.06-0.23c-0.11-0.43-0.23-0.85-0.38-1.26-0.01-0.03-0.03-0.06-0.04-0.1-0.15-0.4-0.32-0.79-0.51-1.17-0.03-0.05-0.05-0.1-0.07-0.15a15.33 15.33 0 0 0-0.79-1.32c-0.24-0.35-0.5-0.7-0.77-1.03-0.04-0.05-0.09-0.1-0.13-0.15-0.29-0.33-0.59-0.66-0.92-0.96l-0.03-0.03c-0.33-0.31-0.68-0.59-1.05-0.87-0.04-0.03-0.07-0.06-0.1-0.08L498.47 74.13a12.62 12.62 0 0 0-14.91 0L66.68 378.95c-0.04 0.03-0.07 0.06-0.11 0.09-0.36 0.27-0.71 0.55-1.04 0.86l-0.04 0.04c-0.32 0.3-0.62 0.62-0.91 0.95-0.04 0.05-0.09 0.1-0.13 0.15-0.27 0.33-0.53 0.67-0.77 1.02-0.05 0.07-0.09 0.14-0.14 0.21-0.23 0.36-0.45 0.73-0.65 1.11-0.03 0.05-0.05 0.11-0.08 0.16-0.19 0.38-0.36 0.77-0.51 1.16-0.01 0.03-0.03 0.07-0.04 0.1-0.15 0.41-0.27 0.83-0.38 1.26l-0.06 0.23c-0.1 0.42-0.17 0.84-0.23 1.27-0.01 0.07-0.02 0.15-0.02 0.22-0.05 0.45-0.08 0.9-0.08 1.36v240.89c0 4 1.89 7.75 5.1 10.14l416.88 309.65c0.05 0.03 0.1 0.06 0.14 0.1 0.17 0.12 0.34 0.23 0.51 0.35 0.1 0.07 0.2 0.13 0.31 0.2 0.18 0.11 0.36 0.21 0.54 0.31 0.1 0.06 0.2 0.11 0.31 0.17l0.06 0.03c0.04 0.02 0.09 0.04 0.14 0.06 0.35 0.17 0.7 0.32 1.06 0.46 0.1 0.04 0.2 0.08 0.31 0.11 0.41 0.14 0.82 0.27 1.24 0.37l0.17 0.03c0.37 0.08 0.75 0.15 1.12 0.2 0.12 0.02 0.23 0.03 0.35 0.04 0.42 0.04 0.85 0.07 1.28 0.07h0.02c0.43 0 0.85-0.03 1.28-0.07 0.12-0.01 0.23-0.03 0.35-0.04 0.38-0.05 0.75-0.11 1.13-0.2l0.16-0.03c0.42-0.1 0.83-0.23 1.24-0.37 0.1-0.04 0.2-0.08 0.31-0.11 0.35-0.13 0.7-0.28 1.05-0.45 0.05-0.02 0.1-0.04 0.15-0.07 0.02-0.01 0.05-0.03 0.07-0.04 0.09-0.05 0.18-0.1 0.28-0.15 0.19-0.1 0.38-0.21 0.57-0.32 0.1-0.06 0.19-0.12 0.29-0.19a24.351 24.351 0 0 0 0.67-0.46l416.88-310.63c3.2-2.38 5.08-6.14 5.08-10.13v-239.9c-0.01-0.47-0.04-0.93-0.09-1.37zM491.02 99.96l395.49 289.18-162.3 118.67-233.2 170.51L95.53 389.14 491.02 99.96zM86.76 578.8l49.03 36.88c2.27 1.71 4.94 2.54 7.58 2.54 3.83 0 7.62-1.74 10.1-5.04 4.19-5.57 3.07-13.49-2.5-17.68l-64.21-48.3v-44.63l49.03 36.88c2.27 1.71 4.94 2.54 7.58 2.54 3.83 0 7.62-1.74 10.1-5.04 4.19-5.57 3.07-13.49-2.5-17.68l-64.21-48.3v-56.95l165.39 120.93 226.24 165.43v61.72l-49.03-36.88c-5.57-4.19-13.49-3.07-17.68 2.5-4.19 5.57-3.07 13.49 2.5 17.68l64.21 48.3v44.63l-49.03-36.88c-5.57-4.19-13.49-3.07-17.68 2.5-4.19 5.57-3.07 13.49 2.5 17.68l64.21 48.3v44.64L86.76 623.68V578.8z m416.89 335.73V793.7l64.21-48.3c5.57-4.19 6.69-12.11 2.5-17.68s-12.11-6.69-17.68-2.5l-49.03 36.88v-61.72l226.24-165.43 165.39-120.93v56.95l-64.21 48.3c-5.57 4.19-6.69 12.11-2.5 17.68 2.48 3.3 6.27 5.04 10.1 5.04 2.64 0 5.31-0.83 7.58-2.54l49.03-36.88v44.63l-64.21 48.3c-5.57 4.19-6.69 12.11-2.5 17.68 2.48 3.3 6.27 5.04 10.1 5.04 2.64 0 5.31-0.83 7.58-2.54l49.03-36.88v43.91L503.65 914.53z" fill="#441B00" p-id="6667"></path><path d="M204.95 401.77a12.63 12.63 0 0 1-7.66-22.68l146.02-111.11c5.55-4.22 13.47-3.15 17.7 2.4s3.15 13.47-2.4 17.7L212.58 399.19a12.545 12.545 0 0 1-7.63 2.58z" fill="#F88E20" p-id="6668"></path></svg>