<?xml version="1.0" standalone="no"?><!DOCTYPE svg PUBLIC "-//W3C//DTD SVG 1.1//EN" "http://www.w3.org/Graphics/SVG/1.1/DTD/svg11.dtd"><svg t="1563530609092" class="icon" viewBox="0 0 1024 1024" version="1.1" xmlns="http://www.w3.org/2000/svg" p-id="7567" xmlns:xlink="http://www.w3.org/1999/xlink" width="200" height="200"><defs><style type="text/css"></style></defs><path d="M754.6 933.3c-30.4 0-164-57.9-191.1-77.7-1.4-1-2.5-2.5-3.1-4h-96.1c-0.6 1.6-1.7 3-3.1 4-27.1 19.9-160.7 77.7-191.1 77.7h-1.5c-11.5-0.7-17-14.5-20.6-26.5-8.8-29.8-14.1-87.1-13-139.3 1-45.1 6.7-102.2 28.8-118.3 6.3-4.6 14.6-6.9 24.6-6.9 50.8 0 144.8 60.7 172.4 79.4 1 0.7 1.8 1.5 2.4 2.4h98c0.6-0.9 1.5-1.8 2.4-2.4 27.6-18.6 121.6-79.4 172.4-79.4 10.1 0 18.4 2.3 24.6 6.9 22.1 16.1 27.8 73.3 28.8 118.3 1.1 52.3-4.2 109.6-13 139.3-3.5 12-9.1 25.8-20.6 26.5h-1.2z" fill="#F7D7FF" p-id="7568"></path><path d="M736.2 651.1c7.8 0 14.4 1.6 19.3 5.2 40.3 29.4 26.3 266.4 0 267.9h-0.9c-26.5 0-158.4-55.9-185.8-76v-33.1l98.4 17.4-98.4-30.3v-29.3l98.4-30.3-98.4 17.4v-31c22.4-15.2 118.3-77.9 167.4-77.9m-447.7 0c49 0 145 62.7 167.4 77.8v31.2l-98.4-17.4 98.4 30.3v29.3l-98.4 30.3 98.4-17.4v33.1c-27.4 20.1-159.3 76-185.8 76h-0.9c-26.3-1.5-40.3-238.5 0-267.9 4.9-3.7 11.5-5.3 19.3-5.3m272 81.8v109.7h-96.4V732.9h96.4m175.7-99.8c-24.1 0-57.6 11.6-102.1 35.4-33.6 18-63.9 37.8-75.3 45.5l-1.2 0.9h-90.4l-1.2-0.9c-11.4-7.7-41.7-27.6-75.3-45.5-44.6-23.8-78-35.4-102.1-35.4-12 0-22.1 2.9-29.9 8.7-11.9 8.7-19.9 25.1-25.4 51.7-4 19.7-6.5 45.2-7.1 73.7-1.1 53.9 4.2 111 13.4 142.1 2.3 7.9 4.9 14 7.7 18.8 6.7 11.1 15.1 13.8 20.9 14.2 0.6 0 1.3 0.1 2 0.1 5.3 0 15.5-1 42.1-10 16.3-5.5 36.1-13 57.4-21.8 34-14.1 79.9-35.1 97-47.6 0.9-0.7 1.8-1.5 2.6-2.3h86.4c0.8 0.8 1.6 1.6 2.6 2.3 17.1 12.5 62.9 33.5 97 47.6 21.2 8.8 41.1 16.4 57.4 21.8 26.6 9 36.8 10 42.1 10 0.7 0 1.4 0 2-0.1 5.8-0.3 14.2-3.1 20.9-14.2 2.9-4.8 5.4-10.9 7.7-18.8 9.1-31.1 14.5-88.2 13.4-142.1-0.6-28.5-3.1-54-7.1-73.7-5.4-26.6-13.5-43.1-25.4-51.7-8-5.8-18.1-8.7-30.1-8.7z" fill="#330867" p-id="7569"></path><path d="M512.3 534.9c-112.3 0-217.9-7.1-297.4-20-39-6.3-69.8-13.7-91.5-22-26-10-38.7-21.4-38.7-34.8 0-12.9 11.5-23.8 35.2-33.5 18.4-7.5 44.3-14.3 77-20.3 9-44.1 30.7-118.8 56.9-182.9 15.3-37.4 30.4-67.3 44.9-88.7 18.5-27.4 35.7-40.7 52.6-40.7 2 0 4 0.2 6 0.6 27.5 5.5 77.6 27.2 114.7 44.5 12.7 5.9 26.3 8.9 40.3 8.9 14 0 27.6-3 40.3-8.9 37.1-17.3 87.2-39 114.7-44.5 2-0.4 4-0.6 6-0.6 16.9 0 34.1 13.3 52.6 40.7 14.5 21.4 29.6 51.3 44.9 88.7 26.2 64.2 48 138.8 56.9 182.9 32.7 6 58.5 12.8 77 20.3 23.7 9.6 35.2 20.6 35.2 33.5 0 13.5-12.6 24.8-38.7 34.8-21.7 8.3-52.4 15.7-91.5 22-79.5 12.9-185.1 20-297.4 20z" fill="#FFE08A" p-id="7570"></path><path d="M673.3 101c57.9 0 130.8 226.4 146.7 311.1 68.8 12.1 110.8 28.2 110.8 46 0 37.5-187.4 67.9-418.5 67.9S93.8 495.6 93.8 458.1c0-17.7 42-33.9 110.8-46 16-84.7 88.9-311.1 146.7-311.1 1.4 0 2.9 0.1 4.3 0.4 26.7 5.3 76.2 26.9 112.7 43.9 14 6.5 29 9.8 44.1 9.8 15 0 30.1-3.3 44.1-9.8 36.4-17 85.9-38.5 112.7-43.9 1.3-0.2 2.7-0.4 4.1-0.4m-322-18c-20.1 0-39.7 14.6-60 44.6-14.8 21.9-30.2 52.3-45.7 90.3-25.3 61.9-46.4 133.5-56.2 178.6-30.5 5.8-54.9 12.5-72.8 19.7-11.5 4.7-20.3 9.6-26.8 15-11.6 9.7-14.1 19.9-14.1 26.8 0 7.1 2.7 17.7 15.3 27.8 7 5.6 16.6 10.6 29.1 15.4 22.2 8.5 53.6 16.1 93.3 22.5 80 13 186.1 20.1 298.8 20.1s218.9-7.1 298.8-20.1c39.7-6.4 71-14 93.3-22.5 12.6-4.8 22.1-9.9 29.1-15.4 12.7-10 15.3-20.6 15.3-27.8 0-6.8-2.4-17-14.1-26.8-6.5-5.4-15.2-10.3-26.8-15-17.9-7.3-42.3-13.9-72.8-19.7-9.7-45.1-30.9-116.7-56.2-178.6-15.5-38-30.9-68.4-45.7-90.3-20.3-30-39.9-44.6-60-44.6-2.6 0-5.2 0.3-7.8 0.8-22.8 4.6-62.1 19.8-116.7 45.2-11.5 5.4-23.8 8.1-36.5 8.1s-25-2.7-36.5-8.1c-54.6-25.4-93.9-40.6-116.7-45.2-2.3-0.5-4.9-0.8-7.6-0.8z" fill="#330867" p-id="7571"></path><path d="M820 412.1c0 69.9-615.4 77.4-615.4 0-68.8 12.1-110.8 28.2-110.8 46 0 37.5 187.4 67.9 418.5 67.9s418.5-30.4 418.5-67.9c0.1-17.8-42-33.9-110.8-46z" fill="#EAB236" p-id="7572"></path><path d="M513.6 432.5c-107.5 0-213.8-9.7-316-28.8-1.6-0.3-2.7-1.9-2.4-3.5 0.3-1.6 1.9-2.7 3.5-2.4 206 38.5 423.9 38.5 629.9 0 1.6-0.3 3.2 0.8 3.5 2.4 0.3 1.6-0.8 3.2-2.4 3.5-102.3 19.1-208.6 28.8-316.1 28.8z" fill="#330867" p-id="7573"></path></svg>