<?xml version="1.0" standalone="no"?><!DOCTYPE svg PUBLIC "-//W3C//DTD SVG 1.1//EN" "http://www.w3.org/Graphics/SVG/1.1/DTD/svg11.dtd"><svg t="1631622317411" class="icon" viewBox="0 0 1024 1024" version="1.1" xmlns="http://www.w3.org/2000/svg" p-id="16172" xmlns:xlink="http://www.w3.org/1999/xlink" width="200" height="200"><defs><style type="text/css"></style></defs><path d="M97.292 993.27c-5.452 0-10.92-2.062-15.078-6.246l-45.264-45.25c-4-4-6.25-9.406-6.25-15.062s2.25-11.094 6.25-15.094l158.388-158.402a21.324 21.324 0 0 1 30.17 0l45.25 45.246a21.336 21.336 0 0 1 0 30.192l-158.386 158.372a21.18 21.18 0 0 1-15.08 6.244z" fill="#965353" p-id="16173"></path><path d="M127.464 896.524c-14.11-14.094-32.858-21.876-52.796-21.876-19.952 0-38.702 7.782-52.796 21.876-29.108 29.124-29.108 76.5 0 105.59 14.094 14.094 32.844 21.876 52.796 21.876 19.938 0 38.688-7.782 52.796-21.876 29.11-29.09 29.11-76.466 0-105.59z" fill="#FFCE54" p-id="16174"></path><path d="M119.918 828.652l75.42 75.402 30.17-30.156-75.42-75.438z" fill="#7F4545" p-id="16175"></path><path d="M618.656 725.34c0 11.782-9.562 21.312-21.344 21.312s-21.344-9.532-21.344-21.312 9.562-21.344 21.344-21.344 21.344 9.562 21.344 21.344z" fill="#48CFAD" p-id="16176"></path><path d="M149.324 426.66c0 11.782-9.546 21.344-21.328 21.344s-21.328-9.562-21.328-21.344 9.546-21.312 21.328-21.312c11.78-0.002 21.328 9.53 21.328 21.312z" fill="#5D9CEC" p-id="16177"></path><path d="M1002.648 384.004c0 11.78-9.562 21.342-21.344 21.342s-21.342-9.562-21.342-21.342c0-11.782 9.56-21.344 21.342-21.344s21.344 9.562 21.344 21.344z" fill="#A0D468" p-id="16178"></path><path d="M191.994 128.01c0 11.782-9.546 21.342-21.328 21.342s-21.344-9.562-21.344-21.342 9.562-21.344 21.344-21.344c11.782 0 21.328 9.562 21.328 21.344z" fill="#AC92EB" p-id="16179"></path><path d="M533.33 85.354c0 11.78-9.562 21.312-21.342 21.312-11.782 0-21.33-9.532-21.33-21.312 0-11.782 9.546-21.344 21.33-21.344 11.78 0 21.342 9.562 21.342 21.344z" fill="#ED5564" p-id="16180"></path><path d="M746.652 938.648c0 11.782-9.562 21.344-21.344 21.344s-21.344-9.562-21.344-21.344 9.562-21.312 21.344-21.312 21.344 9.532 21.344 21.312z" fill="#FFCE54" p-id="16181"></path><path d="M895.962 639.996v-21.344c0-11.782-9.532-21.308-21.312-21.308s-21.342 9.528-21.342 21.308v21.344c-11.782 0-21.344 9.562-21.344 21.344s9.562 21.312 21.344 21.312v21.344c0 11.782 9.56 21.344 21.342 21.344s21.312-9.562 21.312-21.344v-21.344c11.782 0 21.344-9.532 21.344-21.312s-9.562-21.344-21.344-21.344z" fill="#5D9CEC" p-id="16182"></path><path d="M383.99 298.662v-21.312c0-11.782-9.546-21.344-21.328-21.344s-21.344 9.562-21.344 21.344v21.312c-11.782 0-21.328 9.562-21.328 21.342 0 11.782 9.546 21.344 21.328 21.344v21.312c0 11.782 9.562 21.344 21.344 21.344s21.328-9.562 21.328-21.344v-21.312c11.782 0 21.328-9.562 21.328-21.344 0-11.78-9.546-21.342-21.328-21.342z" fill="#FC6E51" p-id="16183"></path><path d="M1002.648 42.666V21.354c0-11.78-9.562-21.342-21.344-21.342s-21.342 9.562-21.342 21.342v21.312c-11.782 0-21.312 9.562-21.312 21.344s9.532 21.344 21.312 21.344v21.312c0 11.782 9.56 21.344 21.342 21.344s21.344-9.562 21.344-21.344V85.354c11.78 0 21.31-9.562 21.31-21.344s-9.53-21.344-21.31-21.344z" fill="#48CFAD" p-id="16184"></path><path d="M323.568 812.274a21.332 21.332 0 0 1-15.092-6.25l-90.498-90.528c-4.016-4-6.25-9.406-6.25-15.062s2.234-11.094 6.25-15.094L711.308 192.008a21.4 21.4 0 0 1 12.062-6.032l105.594-15.094c6.656-0.938 13.344 1.282 18.094 6.032s6.998 11.468 6.032 18.124l-15.094 105.59a21.1 21.1 0 0 1-6.032 12.062L338.646 806.024c-4 4-9.422 6.25-15.078 6.25z" fill="#FFCE54" p-id="16185"></path><path d="M278.304 767.024a21.3 21.3 0 0 1-15.078-6.246c-8.328-8.344-8.328-21.844 0-30.188l372.648-372.648c8.344-8.344 21.844-8.344 30.154 0 8.344 8.314 8.344 21.844 0 30.156l-372.632 372.68a21.328 21.328 0 0 1-15.092 6.246z" fill="#F6BB42" p-id="16186"></path><path d="M398.99 836.184L187.806 624.996a21.38 21.38 0 0 0-18.514-5.968 21.27 21.27 0 0 0-15.656 11.532l-30.17 60.312a21.308 21.308 0 0 0 4 24.624l181.01 181.028a21.342 21.342 0 0 0 15.092 6.25c3.234 0 6.5-0.718 9.532-2.25l60.344-30.156a21.354 21.354 0 0 0 5.546-34.184z" fill="#ED5564" p-id="16187"></path></svg>