<?xml version="1.0" standalone="no"?><!DOCTYPE svg PUBLIC "-//W3C//DTD SVG 1.1//EN" "http://www.w3.org/Graphics/SVG/1.1/DTD/svg11.dtd"><svg t="1631619029727" class="icon" viewBox="0 0 1024 1024" version="1.1" xmlns="http://www.w3.org/2000/svg" p-id="13145" xmlns:xlink="http://www.w3.org/1999/xlink" width="200" height="200"><defs><style type="text/css"></style></defs><path d="M814.87 482.58l6.91 15.67 58.81 133.34-33.09-19.1L795.21 494 590.5 464.11 557.41 445l230.39 33.63zM690.17 834.44l-134.96 78.43L72.87 634.39l134.96-78.43z" fill="#8A5A3B" opacity=".3" p-id="13146"></path><path d="M872.71 783.44l-134.99 78.45-482.35-278.48 135-78.45 434.8 251.03zM960.17 677.54l-135 78.45-434.8-251.03-47.54-27.45 134.99-78.45L557.41 445l33.09 19.11 257 148.38 33.09 19.1zM864.1 453.97c17.81 10.28 17.9 26.97 0.21 37.26-11.52 6.7-27.72 9.03-42.53 7.02l-6.91-15.67-27.07-3.95c-3.52-8.57 0.46-17.96 11.98-24.66 17.69-10.28 46.51-10.28 64.32 0z m-47.23 27.45c8.46 4.88 22.05 4.88 30.45 0 8.37-4.86 8.36-12.76-0.1-17.64-8.46-4.88-22.09-4.86-30.45 0-8.4 4.88-8.36 12.76 0.1 17.64" fill="#8A5A3B" opacity=".3" p-id="13147"></path><path d="M546.62 757.76l-0.44 156.14L63.83 635.42l0.44-156.14z" fill="#FDCDAA" p-id="13148"></path><path d="M546.62 757.76l41.13-23.9L587.3 890l-41.12 23.9z" fill="#C39E83" p-id="13149"></path><path d="M64.27 479.28l41.13-23.9 482.35 278.48-41.13 23.9z" fill="#DAB193" p-id="13150"></path><path d="M112.26 350.59l41.13-23.9 434.8 251.03-41.13 23.91z" fill="#DCBA2C" p-id="13151"></path><path d="M594.6 629.07l-0.44 156.14-482.35-278.48 0.45-156.14 434.8 251.04z" fill="#FFD833" p-id="13152"></path><path d="M594.6 629.07l41.13-23.9-0.44 156.14-41.13 23.9z" fill="#C5A727" p-id="13153"></path><path d="M547.06 601.63l41.13-23.91 47.54 27.45-41.13 23.9z" fill="#DCBA2C" p-id="13154"></path><path d="M65.16 167.01l41.13-23.91 79.54 45.93-41.13 23.9z" fill="#DAB193" p-id="13155"></path><path d="M144.7 212.93l41.13-23.9 33.09 19.1-41.13 23.9z" fill="#DAB193" p-id="13156"></path><path d="M177.79 232.03l41.13-23.9 257.04 148.41-41.13 23.9zM434.83 380.44l41.13-23.9 33.13 19.12-41.13 23.9z" fill="#DAB193" p-id="13157"></path><path d="M547.5 445.49l-0.44 156.14-434.8-251.04-47.55-27.45 0.45-156.13 79.54 45.92 33.09 19.1 257.04 148.41 33.13 19.12z" fill="#FDCDAA" p-id="13158"></path><path d="M547.5 445.49l41.13-23.9-0.44 156.13-41.13 23.91z" fill="#C39E83" p-id="13159"></path><path d="M467.96 399.56l41.13-23.9 79.54 45.93-41.13 23.9z" fill="#DAB193" p-id="13160"></path><path d="M144.7 212.93l41.13-23.9 144.92-15.72-41.13 23.9z" fill="#5D3D28" p-id="13161"></path><path d="M289.62 197.21l41.13-23.9 17.02-1.85-41.13 23.9z" fill="#5D3D28" p-id="13162"></path><path d="M306.64 195.36l41.13-23.9 16.96 21.47-41.12 23.9z" fill="#9F6843" p-id="13163"></path><path d="M306.65 193.05l41.13-23.9c0.16 0.09 0.33 0.19 0.49 0.27l-41.13 23.9c-0.16-0.08-0.32-0.18-0.49-0.27" fill="#805436" p-id="13164"></path><path d="M307.14 193.32l41.13-23.9 0.63 0.33-41.13 23.9c-0.21-0.1-0.42-0.21-0.63-0.33" fill="#7D5235" p-id="13165"></path><path d="M307.77 193.65l41.13-23.9c0.21 0.1 0.42 0.2 0.62 0.29l-41.13 23.9c-0.2-0.09-0.41-0.19-0.62-0.29" fill="#7A5034" p-id="13166"></path><path d="M308.39 193.94l41.13-23.9c0.21 0.09 0.41 0.18 0.61 0.26L309 194.2c-0.2-0.08-0.4-0.16-0.61-0.26" fill="#764E32" p-id="13167"></path><path d="M309.01 194.2l41.13-23.9c0.21 0.08 0.41 0.16 0.62 0.23l-41.13 23.9c-0.21-0.07-0.41-0.14-0.62-0.23" fill="#734C31" p-id="13168"></path><path d="M309.63 194.44l41.13-23.9c0.21 0.07 0.41 0.14 0.61 0.2l-41.13 23.9c-0.2-0.06-0.41-0.13-0.61-0.2" fill="#704A30" p-id="13169"></path><path d="M310.24 194.64l41.13-23.9c0.21 0.06 0.42 0.12 0.63 0.17l-41.13 23.9c-0.21-0.05-0.42-0.11-0.63-0.17" fill="#6D472E" p-id="13170"></path><path d="M310.87 194.81l41.13-23.9c0.21 0.05 0.42 0.1 0.63 0.14l-41.13 23.9c-0.21-0.04-0.42-0.09-0.63-0.14" fill="#6A452D" p-id="13171"></path><path d="M311.5 194.95l41.13-23.9c0.23 0.04 0.45 0.08 0.67 0.11l-41.13 23.9c-0.22-0.03-0.44-0.06-0.67-0.11" fill="#66432C" p-id="13172"></path><path d="M312.17 195.06l41.13-23.9c0.23 0.03 0.46 0.05 0.68 0.07l-41.13 23.9c-0.22-0.01-0.45-0.04-0.68-0.07" fill="#63412A" p-id="13173"></path><path d="M312.85 195.13l41.13-23.9c0.24 0.02 0.48 0.02 0.72 0.02l-41.13 23.9c-0.24 0.01-0.48 0-0.72-0.02" fill="#603F29" p-id="13174"></path><path d="M313.56 195.15l41.13-23.9c0.27 0 0.53-0.01 0.79-0.04l-41.13 23.9c-0.25 0.03-0.52 0.04-0.79 0.04" fill="#5D3D27" p-id="13175"></path><path d="M314.36 195.12l41.13-23.9c0.3-0.03 0.59-0.07 0.88-0.13l-41.13 23.9c-0.29 0.06-0.59 0.1-0.88 0.13" fill="#5A3B26" p-id="13176"></path><path d="M315.23 194.99l41.13-23.9c0.37-0.07 0.72-0.17 1.06-0.29l-41.13 23.9c-0.34 0.12-0.69 0.22-1.06 0.29" fill="#563925" p-id="13177"></path><path d="M316.3 194.7l41.13-23.9c0.43-0.15 0.84-0.34 1.23-0.57l-41.13 23.9c-0.39 0.22-0.8 0.41-1.23 0.57" fill="#533723" p-id="13178"></path><path d="M295.88 156.88l41.13-23.9c-1.05 0.61-1.94 1.48-2.65 2.58l-41.13 23.9c0.71-1.11 1.61-1.98 2.65-2.58" fill="#533723" p-id="13179"></path><path d="M293.24 159.46l41.13-23.9c-0.21 0.33-0.4 0.68-0.58 1.05l-41.13 23.9c0.18-0.37 0.37-0.72 0.58-1.05" fill="#563925" p-id="13180"></path><path d="M292.66 160.51l41.13-23.9c-0.13 0.28-0.25 0.57-0.37 0.87l-41.13 23.9c0.12-0.31 0.24-0.6 0.37-0.87" fill="#5A3B26" p-id="13181"></path><path d="M292.29 161.38l41.13-23.9c-0.1 0.26-0.19 0.53-0.27 0.81l-41.13 23.9c0.09-0.29 0.18-0.55 0.27-0.81" fill="#5D3D27" p-id="13182"></path><path d="M292.03 162.18l41.13-23.9c-0.07 0.25-0.14 0.51-0.2 0.78l-41.13 23.9c0.05-0.27 0.12-0.53 0.2-0.78" fill="#603F29" p-id="13183"></path><path d="M291.82 162.96l41.13-23.9c-0.06 0.24-0.11 0.49-0.15 0.75l-41.13 23.9c0.05-0.26 0.1-0.51 0.15-0.75" fill="#63412A" p-id="13184"></path><path d="M291.67 163.71l41.13-23.9c-0.04 0.24-0.08 0.48-0.11 0.73l-41.13 23.9c0.03-0.25 0.07-0.49 0.11-0.73" fill="#66432C" p-id="13185"></path><path d="M291.56 164.44l41.13-23.9c-0.03 0.24-0.06 0.49-0.08 0.74l-41.13 23.9c0.03-0.26 0.05-0.5 0.08-0.74" fill="#6A452D" p-id="13186"></path><path d="M291.49 165.17l41.13-23.9c-0.02 0.24-0.03 0.48-0.04 0.72l-41.13 23.9c0-0.24 0.02-0.48 0.04-0.72" fill="#6D472E" p-id="13187"></path><path d="M291.44 165.89l41.13-23.9c-0.01 0.24-0.02 0.49-0.02 0.74l-41.13 23.9c0.01-0.25 0.01-0.49 0.02-0.74" fill="#704A30" p-id="13188"></path><path d="M291.43 166.63l41.13-23.9v0.04c0 0.23 0 0.46 0.01 0.69l-41.13 23.9c-0.01-0.23-0.01-0.46-0.01-0.69v-0.04" fill="#734C31" p-id="13189"></path><path d="M291.43 167.37l41.13-23.9 0.03 0.74-41.13 23.9-0.03-0.74" fill="#764E32" p-id="13190"></path><path d="M291.47 168.12l41.13-23.9 0.06 0.75-41.13 23.9c-0.03-0.26-0.05-0.51-0.06-0.75" fill="#7A5034" p-id="13191"></path><path d="M291.53 168.86l41.13-23.9c0.02 0.25 0.05 0.5 0.08 0.75l-41.13 23.9c-0.03-0.25-0.06-0.5-0.08-0.75" fill="#7D5235" p-id="13192"></path><path d="M291.61 169.61l41.13-23.9c0.03 0.26 0.07 0.51 0.11 0.77l-41.13 23.9c-0.04-0.25-0.08-0.51-0.11-0.77" fill="#805436" p-id="13193"></path><path d="M291.72 170.38l41.13-23.9c0.04 0.26 0.09 0.52 0.13 0.77l-41.13 23.9c-0.04-0.25-0.09-0.51-0.13-0.77" fill="#835638" p-id="13194"></path><path d="M291.86 171.16l41.13-23.9c0.05 0.27 0.1 0.53 0.16 0.8l-41.13 23.9c-0.06-0.27-0.11-0.54-0.16-0.8" fill="#865839" p-id="13195"></path><path d="M292.02 171.96l41.13-23.9c0.06 0.27 0.12 0.53 0.19 0.8l-41.13 23.9c-0.07-0.27-0.13-0.54-0.19-0.8" fill="#8A5A3A" p-id="13196"></path><path d="M292.2 172.76l41.13-23.9 0.21 0.81-41.13 23.9-0.21-0.81" fill="#8D5C3C" p-id="13197"></path><path d="M292.42 173.57l41.13-23.9c0.07 0.27 0.15 0.54 0.24 0.81l-41.13 23.9c-0.09-0.27-0.17-0.54-0.24-0.81" fill="#905F3D" p-id="13198"></path><path d="M292.65 174.38l41.13-23.9c0.08 0.26 0.17 0.53 0.25 0.79l-41.13 23.9c-0.08-0.27-0.17-0.53-0.25-0.79" fill="#93613F" p-id="13199"></path><path d="M292.91 175.17l41.13-23.9 0.27 0.78-41.13 23.9c-0.1-0.27-0.19-0.53-0.27-0.78" fill="#966340" p-id="13200"></path><path d="M293.18 175.94l41.13-23.9c0.09 0.25 0.18 0.5 0.28 0.75l-41.13 23.9c-0.1-0.25-0.19-0.5-0.28-0.75" fill="#9A6541" p-id="13201"></path><path d="M293.46 176.69l41.13-23.9c0.1 0.25 0.2 0.49 0.3 0.74l-41.13 23.9c-0.11-0.25-0.21-0.49-0.3-0.74" fill="#9D6743" p-id="13202"></path><path d="M293.75 177.43l41.13-23.9c0.1 0.24 0.2 0.49 0.31 0.73l-41.13 23.9c-0.1-0.25-0.2-0.49-0.31-0.73" fill="#A06944" p-id="13203"></path><path d="M294.07 178.15l41.13-23.9c0.11 0.25 0.22 0.49 0.34 0.74l-41.13 23.9c-0.12-0.24-0.23-0.49-0.34-0.74" fill="#AB7B5A" p-id="13204"></path><path d="M294.4 178.89l41.13-23.9c0.13 0.27 0.25 0.53 0.39 0.8l-41.13 23.9c-0.13-0.26-0.26-0.53-0.39-0.8" fill="#B08264" p-id="13205"></path><path d="M294.79 179.69l41.13-23.9c0.15 0.31 0.31 0.61 0.47 0.91l-41.13 23.9c-0.16-0.3-0.32-0.6-0.47-0.91" fill="#B4886B" p-id="13206"></path><path d="M295.26 180.6l41.13-23.9c0.24 0.45 0.49 0.9 0.75 1.34l-41.13 23.9c-0.26-0.44-0.51-0.88-0.75-1.34" fill="#B78D71" p-id="13207"></path><path d="M296.01 181.94l41.13-23.9c0.36 0.61 0.74 1.21 1.13 1.8l-41.13 23.9c-0.39-0.58-0.77-1.19-1.13-1.8" fill="#B99176" p-id="13208"></path><path d="M297.14 183.74l41.13-23.9c0.31 0.46 0.63 0.92 0.96 1.37l-41.13 23.9c-0.33-0.44-0.65-0.9-0.96-1.37" fill="#B78D71" p-id="13209"></path><path d="M298.1 185.11l41.13-23.9c0.22 0.3 0.45 0.6 0.68 0.89L298.78 186c-0.23-0.29-0.46-0.59-0.68-0.89" fill="#B4886B" p-id="13210"></path><path d="M298.78 186l41.13-23.9c0.19 0.24 0.39 0.49 0.59 0.72l-41.13 23.9c-0.2-0.23-0.4-0.47-0.59-0.72" fill="#B08264" p-id="13211"></path><path d="M299.37 186.73l41.13-23.9c0.19 0.23 0.39 0.46 0.59 0.69l-41.13 23.9c-0.2-0.23-0.4-0.46-0.59-0.69" fill="#AB7B5A" p-id="13212"></path><path d="M299.96 187.42l41.13-23.9c0.2 0.22 0.39 0.44 0.59 0.66l-41.13 23.9c-0.2-0.22-0.4-0.44-0.59-0.66" fill="#A06944" p-id="13213"></path><path d="M300.55 188.07l41.13-23.9c0.21 0.22 0.41 0.44 0.62 0.65l-41.13 23.9c-0.21-0.2-0.41-0.42-0.62-0.65" fill="#9D6743" p-id="13214"></path><path d="M301.17 188.73l41.13-23.9c0.21 0.22 0.43 0.43 0.64 0.64l-41.13 23.9-0.64-0.64" fill="#9A6541" p-id="13215"></path><path d="M301.82 189.37l41.13-23.9c0.22 0.21 0.45 0.42 0.67 0.63L302.49 190c-0.23-0.21-0.45-0.42-0.67-0.63" fill="#966340" p-id="13216"></path><path d="M302.49 189.99l41.13-23.9c0.22 0.2 0.45 0.4 0.68 0.59l-41.13 23.9c-0.23-0.19-0.45-0.39-0.68-0.59" fill="#93613F" p-id="13217"></path><path d="M303.17 190.59l41.13-23.9c0.23 0.19 0.45 0.38 0.68 0.56l-41.13 23.9c-0.22-0.19-0.45-0.37-0.68-0.56" fill="#905F3D" p-id="13218"></path><path d="M303.85 191.14l41.13-23.9c0.22 0.18 0.45 0.35 0.67 0.51l-41.13 23.9c-0.22-0.16-0.44-0.33-0.67-0.51" fill="#8D5C3C" p-id="13219"></path><path d="M304.53 191.66l41.13-23.9c0.22 0.16 0.44 0.32 0.67 0.47l-41.13 23.9c-0.23-0.15-0.45-0.31-0.67-0.47" fill="#8A5A3A" p-id="13220"></path><path d="M305.2 192.13l41.13-23.9c0.22 0.15 0.43 0.29 0.65 0.43l-41.13 23.9c-0.22-0.14-0.44-0.28-0.65-0.43" fill="#865839" p-id="13221"></path><path d="M305.85 192.56l41.13-23.9c0.22 0.14 0.43 0.27 0.65 0.4l-41.13 23.9c-0.22-0.13-0.44-0.26-0.65-0.4" fill="#835638" p-id="13222"></path><path d="M306.5 192.96l41.13-23.9 0.15 0.09-41.13 23.9-0.15-0.09" fill="#805436" p-id="13223"></path><path d="M283.85 136.18l41.13-23.9c0.83-0.48 1.7-0.88 2.61-1.21l-41.13 23.9c-0.91 0.32-1.78 0.73-2.61 1.21" fill="#533723" p-id="13224"></path><path d="M286.47 134.97l41.13-23.9c0.73-0.26 1.48-0.47 2.26-0.62l-41.13 23.9c-0.78 0.16-1.54 0.36-2.26 0.62" fill="#563925" p-id="13225"></path><path d="M288.72 134.35l41.13-23.9c0.61-0.12 1.23-0.21 1.86-0.27l-41.13 23.9c-0.63 0.06-1.25 0.15-1.86 0.27" fill="#5A3B26" p-id="13226"></path><path d="M290.58 134.08l41.13-23.9c0.55-0.05 1.11-0.08 1.67-0.08L292.26 134c-0.57 0-1.13 0.03-1.68 0.08" fill="#5D3D27" p-id="13227"></path><path d="M292.26 134l41.13-23.9c0.5 0 1 0.01 1.52 0.05l-41.13 23.9c-0.52-0.04-1.02-0.05-1.52-0.05" fill="#603F29" p-id="13228"></path><path d="M293.77 134.05l41.13-23.9c0.47 0.03 0.95 0.08 1.44 0.15l-41.13 23.9c-0.49-0.07-0.96-0.12-1.44-0.15" fill="#63412A" p-id="13229"></path><path d="M295.21 134.2l41.13-23.9c0.47 0.06 0.94 0.14 1.41 0.23l-41.13 23.9c-0.47-0.09-0.95-0.17-1.41-0.23" fill="#66432C" p-id="13230"></path><path d="M296.62 134.43l41.13-23.9c0.44 0.09 0.88 0.18 1.32 0.29l-41.13 23.9c-0.44-0.11-0.88-0.21-1.32-0.29" fill="#6A452D" p-id="13231"></path><path d="M297.94 134.72l41.13-23.9c0.44 0.11 0.88 0.23 1.33 0.37l-41.13 23.9c-0.44-0.13-0.89-0.26-1.33-0.37" fill="#6D472E" p-id="13232"></path><path d="M299.28 135.09l41.13-23.9c0.43 0.13 0.86 0.27 1.29 0.42l-41.13 23.9c-0.44-0.15-0.87-0.29-1.29-0.42" fill="#704A30" p-id="13233"></path><path d="M300.57 135.51l41.13-23.9c0.43 0.15 0.86 0.31 1.3 0.49L301.87 136c-0.44-0.17-0.87-0.34-1.3-0.49" fill="#734C31" p-id="13234"></path><path d="M301.87 136L343 112.1c0.43 0.17 0.86 0.35 1.29 0.55l-41.13 23.9c-0.44-0.19-0.87-0.38-1.29-0.55" fill="#764E32" p-id="13235"></path><path d="M303.16 136.55l41.13-23.9c0.43 0.19 0.87 0.4 1.3 0.61l-41.13 23.9c-0.44-0.21-0.87-0.42-1.3-0.61" fill="#7A5034" p-id="13236"></path><path d="M304.46 137.16l41.13-23.9c0.44 0.22 0.88 0.44 1.32 0.68l-41.13 23.9c-0.44-0.23-0.88-0.46-1.32-0.68" fill="#7D5235" p-id="13237"></path><path d="M305.78 137.85l41.13-23.9c0.34 0.18 0.68 0.38 1.02 0.57l-41.13 23.9c-0.34-0.2-0.68-0.39-1.02-0.57" fill="#805436" p-id="13238"></path><path d="M306.64 195.36l16.97 21.47 144.35 182.73-33.13-19.12L306.58 218.1l-128.79 13.93-33.09-19.1 144.92-15.72z" fill="#A06944" p-id="13239"></path><path d="M323.61 216.83l41.12-23.9 144.36 182.73-41.13 23.9z" fill="#9F6843" p-id="13240"></path><path d="M306.81 138.42l41.13-23.9c0.11 0.06 0.21 0.12 0.32 0.18l-41.13 23.9c-0.11-0.06-0.22-0.12-0.32-0.18" fill="#805436" p-id="13241"></path><path d="M307.12 138.61l41.13-23.9c0.46 0.27 0.91 0.55 1.36 0.83l-41.13 23.9c-0.45-0.29-0.9-0.57-1.36-0.83" fill="#835638" p-id="13242"></path><path d="M308.49 139.44l41.13-23.9c0.46 0.29 0.91 0.59 1.37 0.9l-41.13 23.9c-0.46-0.31-0.92-0.61-1.37-0.9" fill="#865839" p-id="13243"></path><path d="M309.85 140.34l41.13-23.9c0.47 0.32 0.94 0.65 1.4 1l-41.13 23.9c-0.46-0.34-0.93-0.67-1.4-1" fill="#8A5A3A" p-id="13244"></path><path d="M311.26 141.34l41.13-23.9c0.47 0.35 0.95 0.71 1.41 1.08l-41.13 23.9c-0.47-0.37-0.94-0.73-1.41-1.08" fill="#8D5C3C" p-id="13245"></path><path d="M312.67 142.42l41.13-23.9c0.48 0.38 0.96 0.77 1.43 1.17l-41.13 23.9c-0.47-0.4-0.95-0.79-1.43-1.17" fill="#905F3D" p-id="13246"></path><path d="M314.1 143.59l41.13-23.9c0.48 0.41 0.96 0.82 1.43 1.25l-41.13 23.9c-0.46-0.42-0.94-0.84-1.43-1.25" fill="#93613F" p-id="13247"></path><path d="M315.54 144.84l41.13-23.9c0.48 0.43 0.95 0.87 1.42 1.32l-41.13 23.9c-0.47-0.45-0.94-0.89-1.42-1.32" fill="#966340" p-id="13248"></path><path d="M316.96 146.16l41.13-23.9c0.46 0.44 0.91 0.89 1.36 1.34l-41.13 23.9c-0.45-0.45-0.91-0.9-1.36-1.34" fill="#9A6541" p-id="13249"></path><path d="M318.32 147.5l41.13-23.9c0.44 0.45 0.88 0.91 1.32 1.38l-41.13 23.9-1.32-1.38" fill="#9D6743" p-id="13250"></path><path d="M319.63 148.89l41.13-23.9c0.42 0.46 0.84 0.92 1.26 1.39l-41.13 23.9c-0.41-0.47-0.83-0.94-1.26-1.39" fill="#A06944" p-id="13251"></path><path d="M320.89 150.28l41.13-23.9c0.42 0.48 0.84 0.96 1.25 1.46l-41.13 23.9c-0.41-0.49-0.83-0.98-1.25-1.46" fill="#AB7B5A" p-id="13252"></path><path d="M322.14 151.74l41.13-23.9c0.42 0.5 0.83 1.01 1.24 1.53l-41.13 23.9c-0.41-0.52-0.82-1.03-1.24-1.53" fill="#B08264" p-id="13253"></path><path d="M323.38 153.27l41.13-23.9c0.49 0.62 0.97 1.25 1.44 1.89l-41.13 23.9c-0.48-0.64-0.96-1.27-1.44-1.89" fill="#B4886B" p-id="13254"></path><path d="M324.81 155.15l41.13-23.9c0.7 0.96 1.39 1.93 2.05 2.92l-41.13 23.9c-0.66-0.99-1.34-1.96-2.05-2.92" fill="#B78D71" p-id="13255"></path><path d="M326.87 158.08l41.13-23.9a83.72 83.72 0 0 1 2.39 3.81l-41.13 23.9a78.54 78.54 0 0 0-2.39-3.81" fill="#B99176" p-id="13256"></path><path d="M329.26 161.89l41.13-23.9c0.55 0.93 1.08 1.88 1.59 2.84l-41.13 23.9c-0.51-0.96-1.04-1.9-1.59-2.84" fill="#B78D71" p-id="13257"></path><path d="M330.85 164.73l41.13-23.9c0.34 0.64 0.68 1.29 1 1.94l-41.13 23.9c-0.32-0.65-0.66-1.3-1-1.94" fill="#B4886B" p-id="13258"></path><path d="M331.85 166.67l41.13-23.9c0.28 0.57 0.56 1.13 0.82 1.7l-41.13 23.9c-0.26-0.57-0.54-1.14-0.82-1.7" fill="#B08264" p-id="13259"></path><path d="M332.68 168.37l41.13-23.9c0.24 0.52 0.48 1.04 0.71 1.56l-41.13 23.9c-0.24-0.52-0.47-1.04-0.71-1.56" fill="#AB7B5A" p-id="13260"></path><path d="M333.39 169.93l41.13-23.9c0.23 0.51 0.45 1.02 0.66 1.54l-41.13 23.9c-0.22-0.52-0.44-1.03-0.66-1.54" fill="#A06944" p-id="13261"></path><path d="M334.04 171.47l41.13-23.9c0.22 0.52 0.43 1.04 0.63 1.57l-41.13 23.9c-0.2-0.53-0.41-1.05-0.63-1.57" fill="#9D6743" p-id="13262"></path><path d="M334.68 173.04l41.13-23.9c0.2 0.53 0.4 1.05 0.59 1.58l-41.13 23.9c-0.19-0.53-0.39-1.06-0.59-1.58" fill="#9A6541" p-id="13263"></path><path d="M335.27 174.62l41.13-23.9c0.2 0.55 0.39 1.1 0.57 1.65l-41.13 23.9c-0.18-0.56-0.37-1.11-0.57-1.65" fill="#966340" p-id="13264"></path><path d="M335.84 176.26l41.13-23.9c0.19 0.56 0.36 1.11 0.54 1.67l-41.13 23.9c-0.17-0.55-0.35-1.11-0.54-1.67" fill="#93613F" p-id="13265"></path><path d="M336.38 177.93l41.13-23.9c0.17 0.57 0.34 1.14 0.5 1.7l-41.13 23.9c-0.16-0.56-0.33-1.13-0.5-1.7" fill="#905F3D" p-id="13266"></path><path d="M336.88 179.64l41.13-23.9c0.16 0.57 0.31 1.14 0.45 1.71l-41.13 23.9-0.45-1.71" fill="#8D5C3C" p-id="13267"></path><path d="M337.33 181.35l41.13-23.9c0.14 0.56 0.27 1.13 0.39 1.69l-41.13 23.9c-0.12-0.57-0.25-1.13-0.39-1.69" fill="#8A5A3A" p-id="13268"></path><path d="M337.72 183.04l41.13-23.9c0.12 0.56 0.24 1.12 0.34 1.68l-41.13 23.9c-0.1-0.56-0.22-1.12-0.34-1.68" fill="#865839" p-id="13269"></path><path d="M338.06 184.72l41.13-23.9c0.1 0.54 0.2 1.09 0.28 1.63l-41.13 23.9c-0.08-0.54-0.18-1.09-0.28-1.63" fill="#835638" p-id="13270"></path><path d="M338.34 186.35l41.13-23.9c0.09 0.54 0.16 1.08 0.23 1.62l-41.13 23.9c-0.06-0.54-0.14-1.08-0.23-1.62" fill="#805436" p-id="13271"></path><path d="M338.57 187.97l41.13-23.9c0.07 0.53 0.13 1.05 0.18 1.58l-41.13 23.9c-0.05-0.53-0.11-1.05-0.18-1.58" fill="#7D5235" p-id="13272"></path><path d="M338.75 189.55l41.13-23.9c0.05 0.52 0.09 1.05 0.12 1.57l-41.13 23.9c-0.03-0.53-0.07-1.05-0.12-1.57" fill="#7A5034" p-id="13273"></path><path d="M338.87 191.11l41.13-23.9c0.03 0.52 0.06 1.04 0.07 1.56l-41.13 23.9c-0.01-0.51-0.03-1.03-0.07-1.56" fill="#764E32" p-id="13274"></path><path d="M338.95 192.67l41.13-23.9c0.01 0.49 0.02 0.97 0.02 1.45v0.09l-41.13 23.9v-0.09c0-0.48-0.01-0.96-0.02-1.45" fill="#734C31" p-id="13275"></path><path d="M338.97 194.22l41.13-23.9c0 0.52-0.01 1.04-0.04 1.55l-41.13 23.9c0.02-0.51 0.03-1.03 0.04-1.55" fill="#704A30" p-id="13276"></path><path d="M338.93 195.77l41.13-23.9c-0.02 0.52-0.05 1.04-0.1 1.54l-41.13 23.9c0.05-0.51 0.08-1.02 0.1-1.54" fill="#6D472E" p-id="13277"></path><path d="M338.84 197.31l41.13-23.9c-0.04 0.52-0.1 1.04-0.16 1.54l-41.13 23.9c0.06-0.51 0.11-1.02 0.16-1.54" fill="#6A452D" p-id="13278"></path><path d="M338.68 198.85l41.13-23.9c-0.07 0.53-0.14 1.04-0.23 1.55l-41.13 23.9c0.08-0.51 0.16-1.03 0.23-1.55" fill="#66432C" p-id="13279"></path><path d="M338.45 200.39l41.13-23.9c-0.09 0.54-0.2 1.06-0.32 1.58l-41.13 23.9c0.12-0.51 0.22-1.04 0.32-1.58" fill="#63412A" p-id="13280"></path><path d="M338.13 201.97l41.13-23.9c-0.13 0.56-0.27 1.1-0.42 1.63l-41.13 23.9c0.15-0.53 0.29-1.07 0.42-1.63" fill="#603F29" p-id="13281"></path><path d="M337.71 203.6l41.13-23.9c-0.17 0.59-0.36 1.16-0.57 1.72l-41.13 23.9c0.2-0.56 0.39-1.13 0.57-1.72" fill="#5D3D27" p-id="13282"></path><path d="M337.14 205.32l41.13-23.9c-0.24 0.64-0.5 1.26-0.78 1.86l-41.13 23.9c0.28-0.6 0.54-1.22 0.78-1.86" fill="#5A3B26" p-id="13283"></path><path d="M336.35 207.17l41.13-23.9c-0.37 0.77-0.77 1.5-1.21 2.18l-41.13 23.9c0.45-0.68 0.85-1.4 1.21-2.18" fill="#563925" p-id="13284"></path><path d="M335.15 209.36l41.13-23.9c-1.49 2.34-3.38 4.18-5.59 5.46l-41.13 23.9c2.21-1.28 4.1-3.12 5.59-5.46" fill="#533723" p-id="13285"></path><path d="M306.81 138.42c17.81 10.28 32.22 35.24 32.16 55.7-0.04 13.33-6.18 21.46-15.36 22.71l-16.96-21.47-17.03 1.85c-9.15-11.82-15.22-27.01-15.18-40.34 0.05-20.47 14.56-28.73 32.37-18.45z m-0.16 54.63c8.46 4.88 15.3 0.98 15.33-8.73 0.03-9.68-6.77-21.49-15.23-26.37-8.46-4.88-15.3-0.94-15.33 8.73-0.02 9.72 6.77 21.49 15.23 26.37" fill="#563824" p-id="13286"></path><path d="M150.06 235.73c3.43 1.98 6.21 6.8 6.2 10.74l-0.28 99.88c-0.01 3.94-2.81 5.54-6.24 3.56-3.39-1.96-6.18-6.78-6.16-10.72l0.28-99.88c0.01-3.94 2.81-5.53 6.2-3.58zM195.63 262.04c3.39 1.96 6.18 6.78 6.16 10.72l-0.28 99.88c-0.01 3.94-2.81 5.54-6.21 3.58-3.43-1.98-6.21-6.8-6.2-10.74l0.28-99.88c0.02-3.94 2.82-5.54 6.25-3.56zM241.16 288.33c3.39 1.96 6.18 6.78 6.16 10.72l-0.28 99.88c-0.01 3.94-2.81 5.54-6.21 3.58-3.43-1.98-6.21-6.8-6.2-10.74l0.28-99.88c0.02-3.94 2.82-5.54 6.25-3.56zM286.69 314.61c3.43 1.98 6.21 6.8 6.2 10.74l-0.28 99.88c-0.01 3.94-2.81 5.54-6.24 3.56s-6.21-6.8-6.2-10.74l0.28-99.88c0.01-3.94 2.81-5.53 6.24-3.56zM332.22 340.9c3.43 1.98 6.21 6.8 6.2 10.74l-0.28 99.88c-0.01 3.94-2.81 5.54-6.24 3.56-3.39-1.96-6.18-6.78-6.16-10.72l0.28-99.88c0-3.94 2.81-5.54 6.2-3.58zM377.75 367.19c3.43 1.98 6.21 6.8 6.2 10.74l-0.28 99.88c-0.01 3.94-2.81 5.54-6.24 3.56-3.39-1.96-6.18-6.78-6.16-10.72l0.28-99.88c0-3.94 2.81-5.54 6.2-3.58zM423.31 393.5c3.39 1.96 6.18 6.78 6.16 10.72l-0.28 99.88c-0.01 3.94-2.81 5.54-6.21 3.58-3.43-1.98-6.21-6.8-6.2-10.74l0.28-99.88c0.02-3.95 2.83-5.54 6.25-3.56zM468.84 419.78c3.43 1.98 6.21 6.8 6.2 10.74l-0.28 99.88c-0.01 3.94-2.81 5.54-6.24 3.56s-6.21-6.8-6.2-10.74l0.28-99.88c0.01-3.94 2.82-5.54 6.24-3.56zM514.37 446.07c3.43 1.98 6.21 6.8 6.2 10.74l-0.28 99.88c-0.01 3.94-2.81 5.54-6.24 3.56s-6.21-6.8-6.2-10.74l0.28-99.88c0.01-3.94 2.82-5.54 6.24-3.56zM191.02 411.83c3.43 1.98 6.21 6.8 6.2 10.74l-0.28 99.88c-0.01 3.94-2.81 5.54-6.24 3.56-3.39-1.96-6.18-6.78-6.16-10.72l0.28-99.88c0.01-3.94 2.81-5.54 6.2-3.58zM236.59 438.14c3.39 1.96 6.18 6.78 6.16 10.72l-0.28 99.88c-0.01 3.94-2.81 5.54-6.21 3.58-3.43-1.98-6.21-6.8-6.2-10.74l0.28-99.88c0.02-3.94 2.82-5.54 6.25-3.56zM282.12 464.43c3.43 1.98 6.21 6.8 6.2 10.74l-0.28 99.88c-0.01 3.94-2.81 5.54-6.24 3.56s-6.21-6.8-6.2-10.74l0.28-99.88c0.01-3.95 2.81-5.54 6.24-3.56zM327.65 490.71c3.43 1.98 6.21 6.8 6.2 10.74l-0.28 99.88c-0.01 3.94-2.81 5.54-6.24 3.56s-6.21-6.8-6.2-10.74l0.28-99.88c0.01-3.94 2.81-5.54 6.24-3.56zM373.18 517c3.43 1.98 6.21 6.8 6.2 10.74l-0.28 99.88c-0.01 3.94-2.81 5.54-6.24 3.56-3.39-1.96-6.18-6.78-6.16-10.72l0.28-99.88c0.01-3.94 2.81-5.54 6.2-3.58zM418.75 543.31c3.39 1.96 6.18 6.78 6.16 10.72l-0.28 99.88c-0.01 3.94-2.81 5.54-6.21 3.58-3.43-1.98-6.21-6.8-6.2-10.74l0.28-99.88c0.02-3.94 2.82-5.54 6.25-3.56zM464.28 569.59c3.39 1.96 6.18 6.78 6.16 10.72l-0.28 99.88c-0.01 3.94-2.81 5.54-6.21 3.58-3.43-1.98-6.21-6.8-6.2-10.74l0.28-99.88c0.02-3.94 2.82-5.54 6.25-3.56zM509.81 595.88c3.43 1.98 6.21 6.8 6.2 10.74l-0.28 99.88c-0.01 3.94-2.81 5.54-6.24 3.56s-6.21-6.8-6.2-10.74l0.28-99.88c0.01-3.94 2.81-5.54 6.24-3.56zM555.34 622.17c3.43 1.98 6.21 6.8 6.2 10.74l-0.28 99.88c-0.01 3.94-2.81 5.54-6.24 3.56-3.39-1.96-6.18-6.78-6.16-10.72l0.28-99.88c0-3.94 2.81-5.54 6.2-3.58zM145.05 542.54c3.43 1.98 6.21 6.8 6.2 10.74l-0.28 99.88c-0.01 3.94-2.81 5.54-6.24 3.56-3.39-1.96-6.18-6.78-6.16-10.72l0.28-99.88c0.01-3.94 2.81-5.54 6.2-3.58zM190.58 568.83c3.43 1.98 6.21 6.8 6.2 10.74l-0.28 99.88c-0.01 3.94-2.81 5.54-6.24 3.56-3.39-1.96-6.18-6.78-6.16-10.72l0.28-99.88c0.01-3.95 2.81-5.54 6.2-3.58zM236.15 595.13c3.39 1.96 6.18 6.78 6.16 10.72l-0.28 99.88c-0.01 3.94-2.81 5.54-6.21 3.58-3.43-1.98-6.21-6.8-6.2-10.74l0.28-99.88c0.02-3.94 2.82-5.54 6.25-3.56zM281.68 621.42c3.43 1.98 6.21 6.8 6.2 10.74l-0.28 99.88c-0.01 3.94-2.81 5.54-6.24 3.56s-6.21-6.8-6.2-10.74l0.28-99.88c0.01-3.94 2.81-5.54 6.24-3.56zM327.21 647.71c3.43 1.98 6.21 6.8 6.2 10.74l-0.28 99.88c-0.01 3.94-2.81 5.54-6.24 3.56s-6.21-6.8-6.2-10.74l0.28-99.88c0-3.95 2.81-5.54 6.24-3.56zM372.74 673.99c3.43 1.98 6.21 6.8 6.2 10.74l-0.28 99.88c-0.01 3.94-2.81 5.54-6.24 3.56-3.39-1.96-6.18-6.78-6.16-10.72l0.28-99.88c0-3.94 2.81-5.53 6.2-3.58zM418.3 700.3c3.39 1.96 6.18 6.78 6.16 10.72l-0.28 99.88c-0.01 3.94-2.81 5.54-6.21 3.58-3.43-1.98-6.21-6.8-6.2-10.74l0.28-99.88c0.02-3.94 2.82-5.54 6.25-3.56zM463.83 726.59c3.39 1.96 6.18 6.78 6.16 10.72l-0.28 99.88c-0.01 3.94-2.81 5.54-6.21 3.58-3.43-1.98-6.21-6.8-6.2-10.74l0.28-99.88c0.02-3.94 2.82-5.54 6.25-3.56zM509.36 752.87c3.43 1.98 6.21 6.8 6.2 10.74l-0.28 99.88c-0.01 3.94-2.81 5.54-6.24 3.56s-6.21-6.8-6.2-10.74l0.28-99.88c0.01-3.94 2.81-5.53 6.24-3.56z" fill="#FFFFFF" p-id="13287"></path></svg>