<?xml version="1.0" standalone="no"?><!DOCTYPE svg PUBLIC "-//W3C//DTD SVG 1.1//EN" "http://www.w3.org/Graphics/SVG/1.1/DTD/svg11.dtd"><svg t="1637893103337" class="icon" viewBox="0 0 1024 1024" version="1.1" xmlns="http://www.w3.org/2000/svg" p-id="3551" xmlns:xlink="http://www.w3.org/1999/xlink" width="200" height="200"><defs><style type="text/css"></style></defs><path d="M594.9 694c-12.2 0-24-5.5-31.8-15.3l-109-136.2c-1-1.3-3.1-0.8-3.5 0.8l-19.8 79.2c-3 12-11.2 22-22.5 27.1-11.2 5.2-24.2 5-35.2-0.6l-72.9-36.4H126.8c-22.3 0-41-17.6-41.4-39.9-0.5-22.9 17.9-41.6 40.7-41.6H310c6.3 0 12.6 1.5 18.2 4.3l33.8 16.9c1.1 0.6 2.5-0.1 2.8-1.3l27.8-111.2c3.7-15 15.7-26.6 30.8-29.9 15-3.4 30.8 2.3 40.5 14.4l113.8 142.3c1 1.2 3 0.9 3.5-0.6l15.9-47.7c3.7-11.2 12.1-20.2 23-24.7s23.2-4.1 33.8 1.2l72.8 36.4h168.9c22.3 0 41 17.6 41.5 39.9 0.5 22.9-17.9 41.6-40.7 41.6H717.1c-6.3 0-12.5-1.5-18.2-4.3l-37.4-18.7c-1.1-0.5-2.4 0-2.8 1.2l-25.2 75.4c-4.7 14.2-16.8 24.6-31.5 27.2-2.3 0.3-4.7 0.5-7.1 0.5z" fill="#F9DB88" p-id="3552"></path><path d="M741.9 653.2h-24.8c-11.6 0-23.3-2.5-33.9-7.4l-11 33.1c-9.4 28.3-33.5 49.2-62.8 54.4-4.8 0.9-9.7 1.3-14.5 1.3-24.8 0-48-11.1-63.6-30.6l-60.1-75.2-0.8 3.3c-6 24.2-22.4 44-44.8 54.2-10.8 5-22.3 7.5-34.2 7.5-12.6 0-25.2-3-36.4-8.6l-64.2-32.1h-10.4l204.4 204.4c15.9 15.9 41.7 15.9 57.6 0l201-201c1.2-1.1 0.3-3.3-1.5-3.3zM873.4 209.8c-87.5-87.5-229.3-87.5-316.7 0l-14.4 14.4-72 72c-8 8-20.8 8-28.8 0s-8-20.8 0-28.8l41.8-41.8c0.8-0.8 0.8-2 0-2.8l-13-13c-87.5-87.5-229.2-87.5-316.7 0-76.2 76.2-85.9 193.7-29.3 280.5h185.6c9.1 0 18.3 1.6 26.9 4.6l16.3-65c7.5-30.3 31.2-53.2 61.4-59.8 5.8-1.3 11.7-2 17.6-2 24.8 0 48 11.1 63.6 30.6l69.4 86.7c0.8 1 2.5 1 3.2-0.1 8.8-13 21.4-23.4 36.3-29.6 9.9-4.1 20.4-6.1 31.1-6.1 12.6 0 25.2 3 36.4 8.6l64.2 32.1h166.3c56.7-86.8 47-204.2-29.2-280.5z" fill="#009F72" p-id="3553"></path></svg>