<?xml version="1.0" standalone="no"?><!DOCTYPE svg PUBLIC "-//W3C//DTD SVG 1.1//EN" "http://www.w3.org/Graphics/SVG/1.1/DTD/svg11.dtd"><svg t="1563361452563" class="icon" viewBox="0 0 1024 1024" version="1.1" xmlns="http://www.w3.org/2000/svg" p-id="3360" xmlns:xlink="http://www.w3.org/1999/xlink" width="200" height="200"><defs><style type="text/css"></style></defs><path d="M110.933333 451.84 357.546667 204.8 429.653333 277.333333C419.413333 313.6 436.053333 353.28 469.333333 372.48L469.333333 608.853333C443.733333 623.36 426.666667 651.093333 426.666667 682.666667 426.666667 729.6 465.066667 768 512 768 558.933333 768 597.333333 729.6 597.333333 682.666667 597.333333 651.093333 580.266667 623.36 554.666667 608.853333L554.666667 401.493333 642.986667 490.666667C640 497.066667 640 504.32 640 512 640 558.933333 678.4 597.333333 725.333333 597.333333 772.266667 597.333333 810.666667 558.933333 810.666667 512 810.666667 465.066667 772.266667 426.666667 725.333333 426.666667 717.653333 426.666667 710.4 426.666667 704 429.653333L594.346667 320C605.44 280.32 584.96 236.8 545.28 220.16 526.933333 213.333333 507.733333 211.626667 490.666667 216.32L418.133333 144.213333 451.84 110.933333C485.12 77.226667 538.88 77.226667 572.16 110.933333L913.066667 451.84C946.773333 485.12 946.773333 538.88 913.066667 572.16L572.16 913.066667C538.88 946.773333 485.12 946.773333 451.84 913.066667L110.933333 572.16C77.226667 538.88 77.226667 485.12 110.933333 451.84Z" p-id="3361" fill="#f36b0f"></path></svg>