<?xml version="1.0" encoding="UTF-8" standalone="no"?><svg xmlns="http://www.w3.org/2000/svg" xmlns:xlink="http://www.w3.org/1999/xlink" contentScriptType="application/ecmascript" contentStyleType="text/css" height="329.1667px" preserveAspectRatio="none" style="width:1172px;height:329px;background:#00000000;" version="1.1" viewBox="0 0 1172 329" width="1172.9167px" zoomAndPan="magnify"><defs><linearGradient id="g1ml6u9z19cs4k0" x1="50%" x2="50%" y1="0%" y2="100%"><stop offset="0%" stop-color="#B8B8B8"/><stop offset="100%" stop-color="#999999"/></linearGradient><linearGradient id="g1ml6u9z19cs4k1" x1="50%" x2="50%" y1="0%" y2="100%"><stop offset="0%" stop-color="#7C9AB9"/><stop offset="100%" stop-color="#304D6D"/></linearGradient><linearGradient id="g1ml6u9z19cs4k2" x1="50%" x2="50%" y1="0%" y2="100%"><stop offset="0%" stop-color="#7C9AB9"/><stop offset="100%" stop-color="#446E9B"/></linearGradient></defs><g><rect fill="url(#g1ml6u9z19cs4k0)" height="45.0846" rx="4.1667" ry="4.1667" style="stroke:#6B6B6B;stroke-width:1.0416666666666667;" width="286.4583" x="435.9375" y="2.0833"/><text fill="#304D6D" font-family="Verdana" font-size="20.8333" lengthAdjust="spacing" textLength="259.375" x="449.4792" y="31.838">Bookshelf Class Diagram</text><!--MD5=[023ecf6702e3ca2ce47ae747eafb20f1]
class Iterator--><rect codeLine="5" fill="url(#g1ml6u9z19cs4k1)" height="99.5605" id="Iterator" rx="4.1667" ry="4.1667" style="stroke:#304D6D;stroke-width:1.0416666666666667;" width="145.8333" x="204.1667" y="110.7096"/><rect fill="url(#g1ml6u9z19cs4k2)" height="35.3841" rx="4.1667" ry="4.1667" style="stroke:url(#g1ml6u9z19cs4k2);stroke-width:1.0416666666666667;" width="145.8333" x="204.1667" y="110.7096"/><rect fill="url(#g1ml6u9z19cs4k2)" height="4.1667" style="stroke:url(#g1ml6u9z19cs4k2);stroke-width:1.0416666666666667;" width="145.8333" x="204.1667" y="141.9271"/><rect codeLine="5" fill="none" height="99.5605" id="Iterator" rx="4.1667" ry="4.1667" style="stroke:#304D6D;stroke-width:1.0416666666666667;" width="145.8333" x="204.1667" y="110.7096"/><ellipse cx="244.5313" cy="128.4017" fill="#DC4E4D" rx="10.4167" ry="10.4167" style="stroke:#900100;stroke-width:1.0416666666666667;"/><path d="M245.2637,126.0091 L246.5169,126.0091 C246.8099,126.0091 246.9401,125.9928 247.054,125.9277 C247.2331,125.8138 247.347,125.6022 247.347,125.3906 C247.347,125.179 247.2656,125 247.0866,124.8698 C246.9564,124.7884 246.8587,124.7559 246.5169,124.7559 L242.7409,124.7559 C242.4154,124.7559 242.334,124.7721 242.2201,124.8535 C242.041,124.9674 241.9271,125.179 241.9271,125.3906 C241.9271,125.5859 242.0247,125.765 242.1875,125.8952 C242.3014,125.9928 242.4316,126.0091 242.7409,126.0091 L244.0104,126.0091 L244.0104,130.7943 L242.7409,130.7943 C242.4154,130.7943 242.334,130.8105 242.2201,130.8919 C242.041,130.9896 241.9271,131.2174 241.9271,131.429 C241.9271,131.6081 242.0247,131.8034 242.1875,131.9173 C242.3014,132.015 242.4479,132.0475 242.7409,132.0475 L246.5169,132.0475 C247.0703,132.0475 247.347,131.8359 247.347,131.429 C247.347,131.2174 247.2656,131.0384 247.0866,130.9082 C246.9564,130.8268 246.8587,130.7943 246.5169,130.7943 L245.2637,130.7943 L245.2637,126.0091 Z " fill="#000000"/><text fill="#FFFFFF" font-family="Verdana" font-size="12.5" font-style="italic" lengthAdjust="spacing" textLength="46.875" x="269.0104" y="132.7291">Iterator</text><line style="stroke:#304D6D;stroke-width:1.0416666666666667;" x1="205.2083" x2="348.9583" y1="146.0938" y2="146.0938"/><line style="stroke:#304D6D;stroke-width:1.0416666666666667;" x1="205.2083" x2="348.9583" y1="154.4271" y2="154.4271"/><ellipse cx="215.625" cy="165.8854" fill="#84BE84" rx="3.125" ry="3.125" style="stroke:#038048;stroke-width:1.0416666666666667;"/><text fill="#EEEEEE" font-family="Verdana" font-size="11.4583" lengthAdjust="spacing" textLength="109.375" x="229.1667" y="174.438">boolean hasNext()</text><ellipse cx="215.625" cy="189.6403" fill="#84BE84" rx="3.125" ry="3.125" style="stroke:#038048;stroke-width:1.0416666666666667;"/><text fill="#EEEEEE" font-family="Verdana" font-size="11.4583" lengthAdjust="spacing" textLength="78.125" x="229.1667" y="198.1929">Object next()</text><!--MD5=[914cdf822bf80e984e8ac3bf93b406a5]
class Aggregate--><rect codeLine="11" fill="url(#g1ml6u9z19cs4k1)" height="75.8057" id="Aggregate" rx="4.1667" ry="4.1667" style="stroke:#304D6D;stroke-width:1.0416666666666667;" width="134.375" x="7.2917" y="193.5221"/><rect fill="url(#g1ml6u9z19cs4k2)" height="35.3841" rx="4.1667" ry="4.1667" style="stroke:url(#g1ml6u9z19cs4k2);stroke-width:1.0416666666666667;" width="134.375" x="7.2917" y="193.5221"/><rect fill="url(#g1ml6u9z19cs4k2)" height="4.1667" style="stroke:url(#g1ml6u9z19cs4k2);stroke-width:1.0416666666666667;" width="134.375" x="7.2917" y="224.7396"/><rect codeLine="11" fill="none" height="75.8057" id="Aggregate" rx="4.1667" ry="4.1667" style="stroke:#304D6D;stroke-width:1.0416666666666667;" width="134.375" x="7.2917" y="193.5221"/><ellipse cx="34.0625" cy="211.2142" fill="#DC4E4D" rx="10.4167" ry="10.4167" style="stroke:#900100;stroke-width:1.0416666666666667;"/><path d="M34.7949,208.8216 L36.0482,208.8216 C36.3411,208.8216 36.4714,208.8053 36.5853,208.7402 C36.7643,208.6263 36.8783,208.4147 36.8783,208.2031 C36.8783,207.9915 36.7969,207.8125 36.6178,207.6823 C36.4876,207.6009 36.39,207.5684 36.0482,207.5684 L32.2721,207.5684 C31.9466,207.5684 31.8652,207.5846 31.7513,207.666 C31.5723,207.7799 31.4583,207.9915 31.4583,208.2031 C31.4583,208.3984 31.556,208.5775 31.7188,208.7077 C31.8327,208.8053 31.9629,208.8216 32.2721,208.8216 L33.5417,208.8216 L33.5417,213.6068 L32.2721,213.6068 C31.9466,213.6068 31.8652,213.623 31.7513,213.7044 C31.5723,213.8021 31.4583,214.0299 31.4583,214.2415 C31.4583,214.4206 31.556,214.6159 31.7188,214.7298 C31.8327,214.8275 31.9792,214.86 32.2721,214.86 L36.0482,214.86 C36.6016,214.86 36.8783,214.6484 36.8783,214.2415 C36.8783,214.0299 36.7969,213.8509 36.6178,213.7207 C36.4876,213.6393 36.39,213.6068 36.0482,213.6068 L34.7949,213.6068 L34.7949,208.8216 Z " fill="#000000"/><text fill="#FFFFFF" font-family="Verdana" font-size="12.5" font-style="italic" lengthAdjust="spacing" textLength="65.625" x="55.5208" y="215.5416">Aggregate</text><line style="stroke:#304D6D;stroke-width:1.0416666666666667;" x1="8.3333" x2="140.625" y1="228.9063" y2="228.9063"/><line style="stroke:#304D6D;stroke-width:1.0416666666666667;" x1="8.3333" x2="140.625" y1="237.2396" y2="237.2396"/><ellipse cx="18.75" cy="248.6979" fill="#84BE84" rx="3.125" ry="3.125" style="stroke:#038048;stroke-width:1.0416666666666667;"/><text fill="#EEEEEE" font-family="Verdana" font-size="11.4583" lengthAdjust="spacing" textLength="97.9167" x="32.2917" y="257.2505">Iterator iterator()</text><!--MD5=[3c77abededc2d63828a252f1b3fc8343]
class BookShelfIterator--><rect codeLine="16" fill="url(#g1ml6u9z19cs4k1)" height="170.8252" id="BookShelfIterator" rx="4.1667" ry="4.1667" style="stroke:#304D6D;stroke-width:1.0416666666666667;" width="271.875" x="412.5" y="57.5846"/><rect fill="url(#g1ml6u9z19cs4k2)" height="35.3841" rx="4.1667" ry="4.1667" style="stroke:url(#g1ml6u9z19cs4k2);stroke-width:1.0416666666666667;" width="271.875" x="412.5" y="57.5846"/><rect fill="url(#g1ml6u9z19cs4k2)" height="4.1667" style="stroke:url(#g1ml6u9z19cs4k2);stroke-width:1.0416666666666667;" width="271.875" x="412.5" y="88.8021"/><rect codeLine="16" fill="none" height="170.8252" id="BookShelfIterator" rx="4.1667" ry="4.1667" style="stroke:#304D6D;stroke-width:1.0416666666666667;" width="271.875" x="412.5" y="57.5846"/><ellipse cx="484.375" cy="75.2767" fill="#B8B8B8" rx="10.4167" ry="10.4167" style="stroke:#6B6B6B;stroke-width:1.0416666666666667;"/><path d="M486.3118,71.8913 C485.6283,71.5658 485.1888,71.4681 484.5378,71.4681 C482.6172,71.4681 481.1361,72.9818 481.1361,74.9837 L481.1361,75.8138 C481.1361,77.7181 482.6986,79.1016 484.8145,79.1016 C485.7096,79.1016 486.5723,78.8737 487.1094,78.4668 C487.5488,78.1738 487.7767,77.8483 487.7767,77.5553 C487.7767,77.2298 487.4837,76.9368 487.1582,76.9368 C486.9954,76.9368 486.849,77.002 486.7025,77.1322 C486.3607,77.4902 486.3607,77.4902 486.2305,77.5553 C485.9212,77.7507 485.4167,77.8483 484.847,77.8483 C483.3496,77.8483 482.3893,77.0345 482.3893,75.7813 L482.3893,74.9837 C482.3893,73.6654 483.3171,72.7051 484.5866,72.7051 C485.0098,72.7051 485.4655,72.819 485.8073,73.0143 C486.1654,73.2096 486.2956,73.3724 486.3607,73.6654 C486.4095,73.9746 486.4258,74.056 486.5234,74.1536 C486.6211,74.2676 486.8001,74.3327 486.9629,74.3327 C487.1745,74.3327 487.3535,74.235 487.4837,74.0723 C487.5651,73.9583 487.5977,73.8281 487.5977,73.5026 L487.5977,72.4609 C487.5977,72.1517 487.5814,72.054 487.5,71.9401 C487.3861,71.7448 487.1908,71.6309 486.9629,71.6309 C486.7513,71.6309 486.6048,71.7122 486.4421,71.9401 L486.3118,71.8913 Z " fill="#000000"/><text fill="#FFFFFF" font-family="Verdana" font-size="12.5" lengthAdjust="spacing" textLength="109.375" x="509.375" y="79.6041">BookShelfIterator</text><line style="stroke:#304D6D;stroke-width:1.0416666666666667;" x1="413.5417" x2="683.3333" y1="92.9688" y2="92.9688"/><rect fill="none" height="6.25" style="stroke:#C82930;stroke-width:1.0416666666666667;" width="6.25" x="420.8333" y="101.3021"/><text fill="#EEEEEE" font-family="Verdana" font-size="11.4583" lengthAdjust="spacing" textLength="123.9583" x="437.5" y="112.9796">BookShelf bookShelf</text><rect fill="none" height="6.25" style="stroke:#C82930;stroke-width:1.0416666666666667;" width="6.25" x="420.8333" y="125.057"/><text fill="#EEEEEE" font-family="Verdana" font-size="11.4583" lengthAdjust="spacing" textLength="52.0833" x="437.5" y="136.7345">int index</text><line style="stroke:#304D6D;stroke-width:1.0416666666666667;" x1="413.5417" x2="683.3333" y1="148.8118" y2="148.8118"/><ellipse cx="423.9583" cy="160.2702" fill="#84BE84" rx="3.125" ry="3.125" style="stroke:#038048;stroke-width:1.0416666666666667;"/><text fill="#EEEEEE" font-family="Verdana" font-size="11.4583" lengthAdjust="spacing" textLength="235.4167" x="437.5" y="168.8227">BookShelfIterator(BookShelf bookShelf)</text><ellipse cx="423.9583" cy="184.0251" fill="#84BE84" rx="3.125" ry="3.125" style="stroke:#038048;stroke-width:1.0416666666666667;"/><text fill="#EEEEEE" font-family="Verdana" font-size="11.4583" lengthAdjust="spacing" textLength="109.375" x="437.5" y="192.5776">boolean hasNext()</text><ellipse cx="423.9583" cy="207.7799" fill="#84BE84" rx="3.125" ry="3.125" style="stroke:#038048;stroke-width:1.0416666666666667;"/><text fill="#EEEEEE" font-family="Verdana" font-size="11.4583" lengthAdjust="spacing" textLength="78.125" x="437.5" y="216.3325">Object next()</text><!--MD5=[a3f4307320df94d9e0110f35f6a6db82]
class BookShelf--><rect codeLine="25" fill="url(#g1ml6u9z19cs4k1)" height="218.335" id="BookShelf" rx="4.1667" ry="4.1667" style="stroke:#304D6D;stroke-width:1.0416666666666667;" width="209.375" x="746.875" y="104.4596"/><rect fill="url(#g1ml6u9z19cs4k2)" height="35.3841" rx="4.1667" ry="4.1667" style="stroke:url(#g1ml6u9z19cs4k2);stroke-width:1.0416666666666667;" width="209.375" x="746.875" y="104.4596"/><rect fill="url(#g1ml6u9z19cs4k2)" height="4.1667" style="stroke:url(#g1ml6u9z19cs4k2);stroke-width:1.0416666666666667;" width="209.375" x="746.875" y="135.6771"/><rect codeLine="25" fill="none" height="218.335" id="BookShelf" rx="4.1667" ry="4.1667" style="stroke:#304D6D;stroke-width:1.0416666666666667;" width="209.375" x="746.875" y="104.4596"/><ellipse cx="810.4167" cy="122.1517" fill="#B8B8B8" rx="10.4167" ry="10.4167" style="stroke:#6B6B6B;stroke-width:1.0416666666666667;"/><path d="M812.3535,118.7663 C811.6699,118.4408 811.2305,118.3431 810.5794,118.3431 C808.6589,118.3431 807.1777,119.8568 807.1777,121.8587 L807.1777,122.6888 C807.1777,124.5931 808.7402,125.9766 810.8561,125.9766 C811.7513,125.9766 812.6139,125.7487 813.151,125.3418 C813.5905,125.0488 813.8184,124.7233 813.8184,124.4303 C813.8184,124.1048 813.5254,123.8118 813.1999,123.8118 C813.0371,123.8118 812.8906,123.877 812.7441,124.0072 C812.4023,124.3652 812.4023,124.3652 812.2721,124.4303 C811.9629,124.6257 811.4583,124.7233 810.8887,124.7233 C809.3913,124.7233 808.431,123.9095 808.431,122.6563 L808.431,121.8587 C808.431,120.5404 809.3587,119.5801 810.6283,119.5801 C811.0514,119.5801 811.5072,119.694 811.849,119.8893 C812.207,120.0846 812.3372,120.2474 812.4023,120.5404 C812.4512,120.8496 812.4674,120.931 812.5651,121.0286 C812.6628,121.1426 812.8418,121.2077 813.0046,121.2077 C813.2161,121.2077 813.3952,121.11 813.5254,120.9473 C813.6068,120.8333 813.6393,120.7031 813.6393,120.3776 L813.6393,119.3359 C813.6393,119.0267 813.623,118.929 813.5417,118.8151 C813.4277,118.6198 813.2324,118.5059 813.0046,118.5059 C812.793,118.5059 812.6465,118.5872 812.4837,118.8151 L812.3535,118.7663 Z " fill="#000000"/><text fill="#FFFFFF" font-family="Verdana" font-size="12.5" lengthAdjust="spacing" textLength="63.5417" x="835.4167" y="126.4791">BookShelf</text><line style="stroke:#304D6D;stroke-width:1.0416666666666667;" x1="747.9167" x2="955.2083" y1="139.8438" y2="139.8438"/><rect fill="none" height="6.25" style="stroke:#C82930;stroke-width:1.0416666666666667;" width="6.25" x="755.2083" y="148.1771"/><text fill="#EEEEEE" font-family="Verdana" font-size="11.4583" lengthAdjust="spacing" textLength="76.0417" x="771.875" y="159.8546">Book[] books</text><rect fill="none" height="6.25" style="stroke:#C82930;stroke-width:1.0416666666666667;" width="6.25" x="755.2083" y="171.932"/><text fill="#EEEEEE" font-family="Verdana" font-size="11.4583" lengthAdjust="spacing" textLength="39.5833" x="771.875" y="183.6095">int last</text><line style="stroke:#304D6D;stroke-width:1.0416666666666667;" x1="747.9167" x2="955.2083" y1="195.6868" y2="195.6868"/><ellipse cx="758.3333" cy="207.1452" fill="#84BE84" rx="3.125" ry="3.125" style="stroke:#038048;stroke-width:1.0416666666666667;"/><text fill="#EEEEEE" font-family="Verdana" font-size="11.4583" lengthAdjust="spacing" textLength="138.5417" x="771.875" y="215.6977">BookShelf(int maxsize)</text><ellipse cx="758.3333" cy="230.9001" fill="#84BE84" rx="3.125" ry="3.125" style="stroke:#038048;stroke-width:1.0416666666666667;"/><text fill="#EEEEEE" font-family="Verdana" font-size="11.4583" lengthAdjust="spacing" textLength="97.9167" x="771.875" y="239.4526">Iterator iterator()</text><ellipse cx="758.3333" cy="254.6549" fill="#84BE84" rx="3.125" ry="3.125" style="stroke:#038048;stroke-width:1.0416666666666667;"/><text fill="#EEEEEE" font-family="Verdana" font-size="11.4583" lengthAdjust="spacing" textLength="155.2083" x="771.875" y="263.2075">Book getBookAt(int index)</text><ellipse cx="758.3333" cy="278.4098" fill="#84BE84" rx="3.125" ry="3.125" style="stroke:#038048;stroke-width:1.0416666666666667;"/><text fill="#EEEEEE" font-family="Verdana" font-size="11.4583" lengthAdjust="spacing" textLength="172.9167" x="771.875" y="286.9624">void appendBook(Book book)</text><ellipse cx="758.3333" cy="302.1647" fill="#84BE84" rx="3.125" ry="3.125" style="stroke:#038048;stroke-width:1.0416666666666667;"/><text fill="#EEEEEE" font-family="Verdana" font-size="11.4583" lengthAdjust="spacing" textLength="87.5" x="771.875" y="310.7173">int getLength()</text><!--MD5=[84e3a5e42879fb3231104d3c8e592439]
class Book--><rect codeLine="36" fill="url(#g1ml6u9z19cs4k1)" height="123.3154" id="Book" rx="4.1667" ry="4.1667" style="stroke:#304D6D;stroke-width:1.0416666666666667;" width="146.875" x="1018.75" y="152.3763"/><rect fill="url(#g1ml6u9z19cs4k2)" height="35.3841" rx="4.1667" ry="4.1667" style="stroke:url(#g1ml6u9z19cs4k2);stroke-width:1.0416666666666667;" width="146.875" x="1018.75" y="152.3763"/><rect fill="url(#g1ml6u9z19cs4k2)" height="4.1667" style="stroke:url(#g1ml6u9z19cs4k2);stroke-width:1.0416666666666667;" width="146.875" x="1018.75" y="183.5938"/><rect codeLine="36" fill="none" height="123.3154" id="Book" rx="4.1667" ry="4.1667" style="stroke:#304D6D;stroke-width:1.0416666666666667;" width="146.875" x="1018.75" y="152.3763"/><ellipse cx="1066.6667" cy="170.0684" fill="#B8B8B8" rx="10.4167" ry="10.4167" style="stroke:#6B6B6B;stroke-width:1.0416666666666667;"/><path d="M1068.6035,166.6829 C1067.9199,166.3574 1067.4805,166.2598 1066.8294,166.2598 C1064.9089,166.2598 1063.4277,167.7734 1063.4277,169.7754 L1063.4277,170.6055 C1063.4277,172.5098 1064.9902,173.8932 1067.1061,173.8932 C1068.0013,173.8932 1068.8639,173.6654 1069.401,173.2585 C1069.8405,172.9655 1070.0684,172.64 1070.0684,172.347 C1070.0684,172.0215 1069.7754,171.7285 1069.4499,171.7285 C1069.2871,171.7285 1069.1406,171.7936 1068.9941,171.9238 C1068.6523,172.2819 1068.6523,172.2819 1068.5221,172.347 C1068.2129,172.5423 1067.7083,172.64 1067.1387,172.64 C1065.6413,172.64 1064.681,171.8262 1064.681,170.5729 L1064.681,169.7754 C1064.681,168.457 1065.6087,167.4967 1066.8783,167.4967 C1067.3014,167.4967 1067.7572,167.6107 1068.099,167.806 C1068.457,168.0013 1068.5872,168.1641 1068.6523,168.457 C1068.7012,168.7663 1068.7174,168.8477 1068.8151,168.9453 C1068.9128,169.0592 1069.0918,169.1243 1069.2546,169.1243 C1069.4661,169.1243 1069.6452,169.0267 1069.7754,168.8639 C1069.8568,168.75 1069.8893,168.6198 1069.8893,168.2943 L1069.8893,167.2526 C1069.8893,166.9434 1069.873,166.8457 1069.7917,166.7318 C1069.6777,166.5365 1069.4824,166.4225 1069.2546,166.4225 C1069.043,166.4225 1068.8965,166.5039 1068.7337,166.7318 L1068.6035,166.6829 Z " fill="#000000"/><text fill="#FFFFFF" font-family="Verdana" font-size="12.5" lengthAdjust="spacing" textLength="32.2917" x="1091.6667" y="174.3958">Book</text><line style="stroke:#304D6D;stroke-width:1.0416666666666667;" x1="1019.7917" x2="1164.5833" y1="187.7604" y2="187.7604"/><rect fill="none" height="6.25" style="stroke:#C82930;stroke-width:1.0416666666666667;" width="6.25" x="1027.0833" y="196.0938"/><text fill="#EEEEEE" font-family="Verdana" font-size="11.4583" lengthAdjust="spacing" textLength="72.9167" x="1043.75" y="207.7713">String name</text><line style="stroke:#304D6D;stroke-width:1.0416666666666667;" x1="1019.7917" x2="1164.5833" y1="219.8486" y2="219.8486"/><ellipse cx="1030.2083" cy="231.307" fill="#84BE84" rx="3.125" ry="3.125" style="stroke:#038048;stroke-width:1.0416666666666667;"/><text fill="#EEEEEE" font-family="Verdana" font-size="11.4583" lengthAdjust="spacing" textLength="110.4167" x="1043.75" y="239.8595">Book(String name)</text><ellipse cx="1030.2083" cy="255.0618" fill="#84BE84" rx="3.125" ry="3.125" style="stroke:#038048;stroke-width:1.0416666666666667;"/><text fill="#EEEEEE" font-family="Verdana" font-size="11.4583" lengthAdjust="spacing" textLength="102.0833" x="1043.75" y="263.6144">String getName()</text><!--MD5=[0de2996ddd33ea713f24d1b17ea12283]
link Aggregate to Iterator--><path codeLine="44" d="M141.7344,208.1534 C159.9823,201.7076 179.9375,194.6576 198.7521,188.0117 " fill="none" id="Aggregate-to-Iterator" style="stroke:#446E9B;stroke-width:3.125;"/><polygon fill="#446E9B" points="204.026,186.1492,193.7985,185.3438,199.1152,187.8844,196.5747,193.2011,204.026,186.1492" style="stroke:#446E9B;stroke-width:3.125;"/><!--MD5=[78a51286da8f08a3a9d92eff08176225]
reverse link Aggregate to BookShelf--><path codeLine="45" d="M162.8552,240.1837 C281.301,250.4093 499.3417,263.9409 684.375,246.1263 C704.7031,244.1691 726.2396,240.8946 746.8292,237.1623 " fill="none" id="Aggregate-backto-BookShelf" style="stroke:#446E9B;stroke-width:3.125;"/><polygon fill="none" points="162.0323,247.4311,141.9281,238.3212,163.325,232.9053,162.0323,247.4311" style="stroke:#446E9B;stroke-width:3.125;"/><!--MD5=[f8e793200382e98f2fe73ab7e9e49593]
reverse link Iterator to BookShelfIterator--><path codeLine="46" d="M371.2052,154.5888 C384.4469,153.718 398.2833,152.8076 412.1292,151.8971 " fill="none" id="Iterator-backto-BookShelfIterator" style="stroke:#446E9B;stroke-width:3.125;"/><polygon fill="none" points="371.5521,161.8732,350.2844,155.9638,370.5948,147.3211,371.5521,161.8732" style="stroke:#446E9B;stroke-width:3.125;"/><!--MD5=[837a9dd8999056435d4948ae95136e01]
reverse link BookShelf to Book--><path codeLine="47" d="M970.3625,213.8346 C986.8635,213.8346 1003.4031,213.8346 1018.7177,213.8346 " fill="none" id="BookShelf-backto-Book" style="stroke:#446E9B;stroke-width:3.125;"/><polygon points="956.5385,213.8346,962.7885,218.0013,969.0385,213.8346,962.7885,209.668,956.5385,213.8346" style="stroke:#446E9B;stroke-width:3.125;fill:none;"/><!--MD5=[d9005e97d2b880cfb01d9696f84e13f4]
reverse link BookShelfIterator to BookShelf--><path codeLine="48" d="M697.7833,177.8961 C714.2625,181.7742 730.7771,185.6596 746.5365,189.368 " fill="none" id="BookShelfIterator-backto-BookShelf" style="stroke:#446E9B;stroke-width:3.125;"/><polygon points="684.5896,174.7919,689.7187,180.2797,696.7571,177.6559,691.628,172.1681,684.5896,174.7919" style="stroke:#446E9B;stroke-width:3.125;fill:none;"/><!--MD5=[7c361e571b9bff42b5387a7ddf1376c4]
@startuml
!theme spacelab
left to right direction
Title "Bookshelf Class Diagram"

interface Iterator
{
+ boolean hasNext()
+ Object next()
}

interface Aggregate
{
+ Iterator iterator()
}

class BookShelfIterator
{
- BookShelf bookShelf
- int index
+ BookShelfIterator(BookShelf bookShelf)
+ boolean hasNext()
+ Object next()
}

class BookShelf
{
- Book[] books
- int last
+ BookShelf(int maxsize)
+ Iterator iterator()
+ Book getBookAt(int index)
+ void appendBook(Book book)
+ int getLength()
}

class Book
{
- String name
+ Book(String name)
+ String getName()
}


Aggregate - -> Iterator
Aggregate <|- - BookShelf
Iterator <|- - BookShelfIterator
BookShelf o- - Book
BookShelfIterator o- - BookShelf
@enduml

@startuml



skinparam backgroundColor transparent
skinparam useBetaStyle false







skinparam defaultFontName       "Verdana"
skinparam defaultFontSize       12
skinparam dpi                   100
skinparam shadowing             false
skinparam roundcorner           8
skinparam ParticipantPadding    40
skinparam BoxPadding            40
skinparam Padding               5
skinparam ArrowColor            #333333
skinparam stereotype {
    CBackgroundColor #b8b8b8
    CBorderColor #6b6b6b
    ABackgroundColor #4cbc5c
    ABorderColor #32a243
    IBackgroundColor #dc4e4d
    IBorderColor #900100
    EBackgroundColor #e19e4d
    EBorderColor #945200
    NBackgroundColor #70b8f7
    NBorderColor #246baa
}
skinparam title {
	FontColor	                 #304d6d
	BorderColor	                 #6b6b6b
	FontSize	    	         20
	BorderRoundCorner            8
	BorderThickness 	         1
	BackgroundColor              #b8b8b8-#999999
}

skinparam legend {
	BackgroundColor #999999
	BorderColor #6b6b6b
	FontColor #eeeeee
}

skinparam swimlane {
	BorderColor #3399f3
	BorderThickness 2
	TitleBackgroundColor  #b8b8b8-#999999
	TitleFontColor #304d6d
}


skinparam activity {
		FontColor #ffffff
	BorderColor #304d6d
	BackgroundColor #7c9ab9-#304d6d
	BarColor #3cb521
	StartColor #3399f3
	EndColor #3399f3
	DiamondBackgroundColor #b8b8b8-#6b6b6b
  	DiamondBorderColor #6b6b6b
  	DiamondFontColor #ffffff
}


skinparam participant {
		FontColor #ffffff
	BorderColor #304d6d
	BackgroundColor #7c9ab9-#304d6d
	ParticipantBorderThickness 2
}


skinparam actor {
		FontColor #ffffff
	BorderColor #304d6d
	BackgroundColor #7c9ab9-#304d6d
}


skinparam arrow {
	Thickness 3
	Color #446e9b
	FontColor #ffffff
}


skinparam sequence {
	BorderColor #446e9b
	TitleFontColor #446e9b
	BackgroundColor transparent
	StartColor #446e9b
	EndColor #446e9b
	BoxBackgroundColor transparent
	BoxBorderColor #333333
	BoxFontColor #333333
	DelayFontColor #333333
	LifeLineBorderColor #999999
	LifeLineBorderThickness 2
	LifeLineBackgroundColor #6b6b6b-#6b6b6b
	GroupBorderColor #333333
	GroupFontColor #333333
	GroupHeaderFontColor #3399f3
	GroupBackgroundColor #6b6b6b-#6b6b6b
	GroupHeaderBackgroundColor transparent
	DividerBackgroundColor #707070-#242424
    DividerBorderColor #333333
    DividerBorderThickness 2
    DividerFontColor #eeeeee
	ReferenceBackgroundColor transparent
	ReferenceBorderColor #333333
	ReferenceFontColor #333333
	ReferenceHeaderFontColor #3399f3
	ReferenceHeaderBackgroundColor #6b6b6b-#6b6b6b
	StereotypeFontColor #ffffff
}


skinparam partition {
	BorderColor #446e9b
	FontColor #446e9b
	BackgroundColor transparent
}


skinparam collections {
		FontColor #ffffff
	BorderColor #304d6d
	BackgroundColor #7c9ab9-#304d6d
}


skinparam control {
		FontColor #ffffff
	BorderColor #304d6d
	BackgroundColor #7c9ab9-#304d6d
}


skinparam entity {
		FontColor #ffffff
	BorderColor #304d6d
	BackgroundColor #7c9ab9-#304d6d
}


skinparam boundary {
		FontColor #ffffff
	BorderColor #304d6d
	BackgroundColor #7c9ab9-#304d6d
}


skinparam agent {
	BackgroundColor #d47500
	BorderColor #e19e4d
	FontColor #333333
}


skinparam note {
	BorderThickness 1
	BackgroundColor #70b8f7-#246baa
	BorderColor #246baa
	FontColor #ffffff
}


skinparam artifact {
	BackgroundColor #333333
	BorderColor #242424
	FontColor #eeeeee
}


skinparam component {
		FontColor #ffffff
	BorderColor #304d6d
	BackgroundColor #7c9ab9-#304d6d
}


skinparam interface {
	BackgroundColor  #900100
	BorderColor  #cd0200
	FontColor #333333
}


skinparam storage {
	BackgroundColor #d47500
  	BorderColor #945200
	FontColor #ffffff
}


skinparam node {
	BackgroundColor  #999999
	BorderColor #eeeeee
	FontColor #eeeeee
}


skinparam cloud {
	BackgroundColor #F2FCFE-#eeeeee
	BorderColor #F2FCFE
	FontColor #333333
}


skinparam database {
		FontColor #ffffff
	BorderColor #304d6d
	BackgroundColor #7c9ab9-#304d6d
}


skinparam class {
		FontColor #ffffff
	BorderColor #304d6d
	BackgroundColor #7c9ab9-#304d6d
	FontColor #ffffff
	HeaderBackgroundColor #7c9ab9-#446e9b
	StereotypeFontColor #eeeeee
	BorderThickness 1
	AttributeFontColor #eeeeee
	AttributeFontSize 11
}


skinparam object {
		FontColor #ffffff
	BorderColor #304d6d
	BackgroundColor #7c9ab9-#304d6d
	StereotypeFontColor #333333
	BorderThickness 1
	AttributeFontColor #ffffff
	AttributeFontSize 11
}


skinparam usecase {
		FontColor #ffffff
	BorderColor #304d6d
	BackgroundColor #7c9ab9-#304d6d
	BorderThickness 2
	StereotypeFontColor #446e9b
}


skinparam rectangle {
		FontColor #ffffff
	BorderColor #304d6d
	BackgroundColor #7c9ab9-#304d6d
	BackgroundColor #b8b8b8-#6b6b6b
	BorderThickness 2
	StereotypeFontColor #446e9b
}


skinparam package {
	BackgroundColor #b8b8b8-#6b6b6b
  	BorderColor #446e9b
	FontColor #446e9b
	BorderThickness 2
}


skinparam folder {
	BackgroundColor #b8b8b8-#6b6b6b
  	BorderColor #d47500
	FontColor #d47500
	BorderThickness 2
}


skinparam frame {
	BackgroundColor #b8b8b8-#6b6b6b
  	BorderColor #3399f3
	FontColor #3399f3
	BorderThickness 2
}


skinparam state {
		FontColor #ffffff
	BorderColor #304d6d
	BackgroundColor #7c9ab9-#304d6d
	StartColor #3399f3
	EndColor #3399f3
	AttributeFontColor #ffffff
	AttributeFontSize 11
}


skinparam queue {
		FontColor #ffffff
	BorderColor #304d6d
	BackgroundColor #7c9ab9-#304d6d
}


skinparam card {
	BackgroundColor #70b8f7-#246baa
	BorderColor #246baa
	FontColor #ffffff
}


skinparam file {
	BackgroundColor #6b6b6b-#6b6b6b
	BorderColor #eeeeee
	FontColor #eeeeee
}


left to right direction
Title "Bookshelf Class Diagram"

interface Iterator
{
+ boolean hasNext()
+ Object next()
}

interface Aggregate
{
+ Iterator iterator()
}

class BookShelfIterator
{
- BookShelf bookShelf
- int index
+ BookShelfIterator(BookShelf bookShelf)
+ boolean hasNext()
+ Object next()
}

class BookShelf
{
- Book[] books
- int last
+ BookShelf(int maxsize)
+ Iterator iterator()
+ Book getBookAt(int index)
+ void appendBook(Book book)
+ int getLength()
}

class Book
{
- String name
+ Book(String name)
+ String getName()
}


Aggregate - -> Iterator
Aggregate <|- - BookShelf
Iterator <|- - BookShelfIterator
BookShelf o- - Book
BookShelfIterator o- - BookShelf
@enduml

PlantUML version 1.2021.11beta1(Unknown compile time)
(GPL source distribution)
Java Runtime: Java(TM) SE Runtime Environment
JVM: Java HotSpot(TM) 64-Bit Server VM
Default Encoding: UTF-8
Language: en
Country: US
--></g></svg>