<?xml version="1.0" standalone="no"?><!DOCTYPE svg PUBLIC "-//W3C//DTD SVG 1.1//EN" "http://www.w3.org/Graphics/SVG/1.1/DTD/svg11.dtd"><svg t="1631619279367" class="icon" viewBox="0 0 1024 1024" version="1.1" xmlns="http://www.w3.org/2000/svg" p-id="13910" xmlns:xlink="http://www.w3.org/1999/xlink" width="200" height="200"><defs><style type="text/css"></style></defs><path d="M244.78 220.58l-13.42-14.84c3.04-2.76 6.16-5.48 9.22-8.1l12.98 15.22c-2.92 2.5-5.88 5.14-8.78 7.72zM272.2 198l-12-16c6.66-5.02 13.54-10 20.46-14.5l11.04 16.5c-6.6 4.48-13.16 9.12-19.5 14zM312 171.46l-10-17.28c7.2-4.2 14.62-8.22 22-12l8.96 17.82c-7.08 3.62-14.14 7.46-20.96 11.46zM354.6 150l-8-18.36c7.62-3.3 15.46-6.42 23.3-9.28l6.86 18.78c-7.44 2.64-14.9 5.62-22.16 8.86zM399.5 133.52l-5.74-19.16c3.9-1.16 7.86-2.3 11.82-3.36l5.2 19.32c-3.78 1-7.56 2.08-11.28 3.2zM837.82 797.62l-15.18-13.02c2.54-2.98 5.06-6 7.5-9l15.56 12.58c-2.56 3.16-5.22 6.32-7.88 9.44zM663.46 918.94l-6.94-18.76c8-2.94 16-6.18 23.68-9.62l8.1 18.28c-8.12 3.62-16.48 7.02-24.84 10.1z m49.04-21.74l-9.24-17.74c7.54-4 15.02-8.14 22.28-12.54l10.36 17.1c-7.64 4.64-15.5 9.06-23.42 13.2z m45.9-27.78l-11.42-16.42c6.96-4.84 13.86-10 20.5-15.26l12.44 15.66c-7 5.56-14.24 10.96-21.54 16.04z m42-33.38l-13.42-14.84c6.28-5.68 12.48-11.66 18.42-17.74l14.32 14c-6.24 6.36-12.74 12.54-19.34 18.54zM626.16 930.82l-5.2-19.32c3.72-1 7.52-2 11.28-3.2l5.74 19.16c-3.98 1.18-7.98 2.3-11.82 3.36zM910.14 678.24l-18.58-7.42a401.04 401.04 0 0 0 14.88-254.98c-58-215.38-280.32-343.44-495.68-285.5l-5.2-19.32a424.52 424.52 0 0 1 504.58 567.22zM516 945.44c-187.24 0-359.1-125.02-410-314.24a420.34 420.34 0 0 1 18.58-274.82l18.42 7.76A400.52 400.52 0 0 0 125.26 626c58 215.38 280.32 343.46 495.68 285.5l5.2 19.32a423.66 423.66 0 0 1-110.14 14.62z" fill="#EFEFEF" p-id="13911"></path><path d="M515.34 880.84a366 366 0 0 1-23.5-731.02 366.14 366.14 0 0 1 376.3 464.34 16 16 0 0 1-30.8-8.68 334.12 334.12 0 1 0-97.34 157 16 16 0 1 1 21.5 23.72A362 362 0 0 1 539.88 880q-12.3 0.84-24.54 0.84z" fill="#18659E" p-id="13912"></path><path d="M472.18 771.14h-182.76l-83.22 55.12v-55.12H174.08V538.28h298.1v232.86z" fill="#FFFFFF" p-id="13913"></path><path d="M206.2 842.26a16 16 0 0 1-16-16v-39.12H174a16 16 0 0 1-16-16V538.28a16 16 0 0 1 16-16h298a16 16 0 0 1 16 16v232.86a16 16 0 0 1-16 16h-178l-79.2 52.46a16 16 0 0 1-8.6 2.66zM190 755.14h16.12a16 16 0 0 1 16 16v25.34l58.38-38.68a16 16 0 0 1 8.84-2.66h166.76V554.28H190z" fill="#18659E" p-id="13914"></path><path d="M870.38 771.14H572.3V538.28h298.08v232.86z" fill="#FFFFFF" p-id="13915"></path><path d="M870.38 787.14h-298a16 16 0 0 1-16-16V538.28a16 16 0 0 1 16-16h298a16 16 0 0 1 16 16v232.86a16 16 0 0 1-16 16z m-282-32h266V554.28h-266z" fill="#18659E" p-id="13916"></path><path d="M524.84 269.28m-157.38 0a157.38 157.38 0 1 0 314.76 0 157.38 157.38 0 1 0-314.76 0Z" fill="#FFFFFF" p-id="13917"></path><path d="M524.84 442.64a173.38 173.38 0 1 1 173.38-173.38 173.56 173.56 0 0 1-173.38 173.38z m0-314.74a141.38 141.38 0 1 0 141.38 141.38A141.54 141.54 0 0 0 524.84 128z" fill="#18659E" p-id="13918"></path><path d="M599.94 269.28l-126.12-72.82v145.62l126.12-72.8z" fill="#99D1FF" p-id="13919"></path><path d="M473.82 352a10 10 0 0 1-10-10V196.46a10 10 0 0 1 15-8.66l126.12 72.82a10 10 0 0 1 0 17.32l-126.12 72.82a10 10 0 0 1-5 1.24z m10-138.32v111l96.18-55.4z" fill="#18659E" p-id="13920"></path><path d="M646.92 608.36l-74.62 73.92v88.86h298.08V671.4v62.4l-74.64-71.28-63.62 48.48-85.2-102.64z" fill="#99D1FF" p-id="13921"></path><path d="M870.38 781.14h-298a10 10 0 0 1-10-10v-88.86a10 10 0 0 1 2.96-7.1l74.64-74a10.1 10.1 0 0 1 7.52-2.88 10 10 0 0 1 7.2 3.6l79.08 95.26 56-42.66a10 10 0 0 1 12.96 0.72l57.74 55.14V671.4a10 10 0 0 1 20 0v99.76a10 10 0 0 1-10.1 9.98z m-288-20h278V738l-65.38-62.44-56.8 43.4a10 10 0 0 1-13.76-1.56l-78.24-94.26-64 63.3z" fill="#18659E" p-id="13922"></path><path d="M787.34 608.36m-28.8 0a28.8 28.8 0 1 0 57.6 0 28.8 28.8 0 1 0-57.6 0Z" fill="#99D1FF" p-id="13923"></path><path d="M787.34 647.16a38.8 38.8 0 1 1 38.8-38.8 38.86 38.86 0 0 1-38.8 38.8z m0-57.62a18.8 18.8 0 1 0 18.8 18.8 18.82 18.82 0 0 0-18.8-18.8z" fill="#18659E" p-id="13924"></path><path d="M273.76 654.72m-28.8 0a28.8 28.8 0 1 0 57.6 0 28.8 28.8 0 1 0-57.6 0Z" fill="#99D1FF" p-id="13925"></path><path d="M273.76 693.52a38.8 38.8 0 1 1 38.8-38.8 38.86 38.86 0 0 1-38.8 38.8z m0-57.62a18.8 18.8 0 1 0 18.8 18.8 18.82 18.82 0 0 0-18.8-18.7z" fill="#18659E" p-id="13926"></path><path d="M368.64 654.72m-28.8 0a28.8 28.8 0 1 0 57.6 0 28.8 28.8 0 1 0-57.6 0Z" fill="#99D1FF" p-id="13927"></path><path d="M368.64 693.52a38.8 38.8 0 1 1 38.8-38.8 38.86 38.86 0 0 1-38.8 38.8z m0-57.62a18.8 18.8 0 1 0 18.8 18.8 18.82 18.82 0 0 0-18.8-18.7z" fill="#18659E" p-id="13928"></path></svg>