<?xml version="1.0" standalone="no"?><!DOCTYPE svg PUBLIC "-//W3C//DTD SVG 1.1//EN" "http://www.w3.org/Graphics/SVG/1.1/DTD/svg11.dtd"><svg t="1565086678048" class="icon" viewBox="0 0 1024 1024" version="1.1" xmlns="http://www.w3.org/2000/svg" p-id="1230" xmlns:xlink="http://www.w3.org/1999/xlink" width="200" height="200"><defs><style type="text/css"></style></defs><path d="M732.48 445a16.89 16.89 0 0 1-12-5l-88.92-88.92a17 17 0 0 1 0-24l46.68-46.68a320.63 320.63 0 0 0-169.88-48.21 325.83 325.83 0 0 0-65.74 6.68c0.06 22.22 0.23 48.48 0.63 75.16 0.26 17.45 0.59 33 1 46.82 11.89-5.75 40.06-16.18 63.2 0.1 20 14.08 18.29 39.91 18.29 39.91l5.13 147.07c17.83 19.85 32.77 46 36.31 83.2 8.5 89.23-32.44 119.47-37.13 122.62a15.25 15.25 0 0 0-6.68 13.73l7.92 109.41a323 323 0 0 0 257.8-481.41l-44.59 44.59a16.89 16.89 0 0 1-12.02 4.93zM351.56 751.23c-0.13-1.56-0.54-4.41-1.72-12.43-18.37-125.17-27.72-240-27.77-341.41 0-35.11 0.17-71.71 1.3-107a326.6 326.6 0 0 0-43.24 36.36 322.75 322.75 0 0 0 0 456.44 326 326 0 0 0 50.1 41L350.94 757a15.12 15.12 0 0 0 0.62-5.77z" fill="#C5EAFF" p-id="1231"></path><path d="M530 753.77c4.7-3.15 45.63-33.39 37.13-122.62-3.54-37.19-18.48-63.35-36.31-83.2l-5.13-147.07s1.72-25.82-18.29-39.91c-23.13-16.28-51.31-5.85-63.2-0.1-0.37-13.84-0.7-29.36-1-46.82-0.4-26.68-0.57-52.94-0.63-75.16-0.09-35.24 0.09-60.31 0.09-60.72v-0.6c0-0.25 1.29-25.57-4.8-51.29-7.31-30.87-21.4-47.43-41.89-49.2-0.76-0.07-1.55-0.1-2.34-0.1-16.41 0-38.34 13.64-50.68 51.91-12.49 38.75-17.6 98-19.64 161.49-1.14 35.29-1.32 71.88-1.3 107 0.06 101.38 9.4 216.24 27.77 341.41 1.18 8 1.59 10.88 1.72 12.43a15.12 15.12 0 0 1-0.62 5.73l-20.71 67.26L292.42 947h243.9l-5.08-70.09-7.92-109.41a15.25 15.25 0 0 1 6.68-13.73z" fill="#FFD4C7" p-id="1232"></path><path d="M833.42 327.11l-88.92-88.92a17 17 0 0 0-24 0l-42.24 42.24-46.68 46.68a17 17 0 0 0 0 24l88.92 88.92a17 17 0 0 0 24 0l44.59-44.59 44.33-44.33a17 17 0 0 0 0-24z" fill="#F9DB91" p-id="1233"></path><path d="M842.62 360.34a30 30 0 0 0 0-42.43L753.7 229a30 30 0 0 0-42.43 0l-35.12 35.12a336.23 336.23 0 0 0-220.56-40.74c0-27.1 0.12-45.1 0.12-45.1s5.84-108.57-58.55-114.14q-1.7-0.15-3.46-0.15c-21.19 0-48.66 16.27-63.06 60.92-12.43 38.55-17.8 95.16-20 158.72C227 344.7 172.6 443.48 172.6 555c0 113.44 56.27 213.73 142.41 274.51l-35.77 116.1A11.12 11.12 0 0 0 289.87 960h248.47a11.12 11.12 0 0 0 11.09-11.92l-4.3-59.39C713.25 870.36 844.1 728 844.1 555a334.17 334.17 0 0 0-39-157.12z m-113-113a4 4 0 0 1 5.66 0l88.92 88.92a4 4 0 0 1 0 5.66l-88.92 88.92a4 4 0 0 1-5.66 0L640.74 342a4 4 0 0 1 0-5.66zM289.32 774a309.46 309.46 0 0 1 0-438.05q9.81-9.81 20.36-18.62c-0.51 26.13-0.63 53.05-0.62 80.08 0.1 177 28.77 345.59 29.54 354.91a2.19 2.19 0 0 1-0.09 0.83l-15.43 50.11A312.17 312.17 0 0 1 289.32 774z m233.43-31a28.27 28.27 0 0 0-12.4 25.46l12 165.56H310l53.34-173.21a28.07 28.07 0 0 0 1.15-10.63c-0.16-2-0.54-4.55-1.81-13.25-3-20.33-10-67.93-16.11-128.67-7.62-75.43-11.5-146.36-11.53-210.85-0.05-97.3 1.47-206 20.32-264.49 5.06-15.7 12.36-27.94 21.1-35.4C384.14 91 390.55 90 393.69 90c0.42 0 0.83 0 1.22 0.05 5.26 0.45 21.25 1.84 30.15 38.38 5.82 23.89 4.68 48.26 4.67 48.45v1.2c0 0.66-0.5 67 0.54 136.17 2.16 144.3 8.7 160 11.84 167.53 6.64 15.94 21.5 27.07 38.71 40 30.16 22.59 67.69 50.7 73.4 110.64 3.31 34.73-1 64.76-12.4 86.84-8.47 16.29-18.01 23.01-19.07 23.74z m-6-226.28c-23.17-19.12-45-31.44-50.64-44.93-4.55-10.91-7.15-53.22-8.63-102.46 11.3-4.16 28.47-7.56 42.47 2.29 13.6 9.57 12.81 28.32 12.8 28.41v0.56z m277-82.29a309.62 309.62 0 0 1-250.5 428.33l-7-96.2a2.21 2.21 0 0 1 1-2c7.5-5 51.92-39.13 42.83-134.65-3.67-38.56-18.53-66.15-36.43-87.12l-4.95-141.87c0.17-5.33-0.09-33.88-23.82-50.57-19.73-13.88-41.69-12.48-58.12-8-0.69-31.89-1-64.77-1.11-92.64a311.32 311.32 0 0 1 52.7-4.47 307.9 307.9 0 0 1 148.73 38l-34.72 34.72a30 30 0 0 0 0 42.43l88.92 88.92a30 30 0 0 0 42.43 0l32.11-32.11q4.18 8.44 7.95 17.21z" fill="#512C56" p-id="1234"></path></svg>